<?xml version="1.0" encoding="utf-8"?>
<!-- Generator: Adobe Illustrator 19.1.0, SVG Export Plug-In . SVG Version: 6.00 Build 0)  -->
<svg version="1.1" id="Layer_1" xmlns="http://www.w3.org/2000/svg" xmlns:xlink="http://www.w3.org/1999/xlink" x="0px" y="0px"
	 viewBox="-179.9 271.8 250 250" enable-background="new -179.9 271.8 250 250" xml:space="preserve">
<g>
	<path fill="#3E3E40" d="M-179.8,317.6c51,0,101.9,0,152.9,0c0.2,3.7,0.4,7.3,0.3,11c-0.1,32.8,0.1,65.4-0.1,98.2
		c-45.1,0.2-90.1,0-135.2,0.1c-6-0.1-12,0.3-17.9-0.5C-180,390.1-179.9,353.8-179.8,317.6 M-146.4,437.2
		c11.9-3.5,25.2,6.9,24.4,19.3c0.6,11.9-12.1,21.8-23.5,19c-8.7-1.9-15.6-10-15.6-19C-161.5,447.7-155.1,439.2-146.4,437.2
		 M7.4,437.2c11.9-3.5,25.1,6.9,24.4,19.3c0.5,11.9-12.1,21.8-23.6,18.9c-8.7-1.8-15.6-10-15.6-18.9C-7.6,447.7-1.2,439.2,7.4,437.2
		L7.4,437.2z"/>
	<path fill="#F5A313" d="M-16,346.5c18.3,0.1,36.5-0.1,54.8,0.1c0.3,0.2,0.8,0.7,1.1,1c9.7,15.6,19.3,31.4,29,47
		c1,1.4,1.3,3.1,1.3,4.8c0,18.7,0,37.5,0,56.2c-9.4,0-18.7,0.1-28.1-0.1c-0.3-9.2-4.7-18.4-12.5-23.7c-10.9-7.9-27.2-6.9-37,2.2
		c-6,5.5-9.4,13.5-9.6,21.5c-31.7,0-63.2,0.2-94.9-0.1c-0.2-7.9-3.6-15.4-9-21.2c35-0.3,69.8-0.1,104.8-0.1
		C-15.9,405-16,375.8-16,346.5 M-5.8,356.6c0,10.2,0,20.5,0,30.7c19.5,0.1,39.1,0.1,58.5,0c-6.3-10.2-12.5-20.5-18.9-30.7
		C20.5,356.7,7.3,356.7-5.8,356.6 M-179.8,434.3c6,0,11.9-0.1,17.9,0.1c-5.2,5.8-8.8,13.3-8.9,21.3c-3,0-6-0.1-9.1-0.1
		C-179.9,448.5-179.9,441.4-179.8,434.3L-179.8,434.3z"/>
</g>
<rect x="-179.9" y="271.8" fill="none" width="250" height="250"/>
</svg>
