<?xml version="1.0" encoding="utf-8"?>
<!-- Generator: Adobe Illustrator 19.1.0, SVG Export Plug-In . SVG Version: 6.00 Build 0)  -->
<svg version="1.1" id="Layer_1" xmlns="http://www.w3.org/2000/svg" xmlns:xlink="http://www.w3.org/1999/xlink" x="0px" y="0px"
	 viewBox="-182 272.1 250 250.1" enable-background="new -182 272.1 250 250.1" xml:space="preserve">
<path fill="#F5A313" d="M46.6,272.8c5.2-1.1,11.3-1.2,15.6,2.4c3.8,3.2,4.6,8.5,4.1,13.1c-0.9,8.3-4.7,16-8.9,23
	c-8.9,14.4-21.1,26.8-35,36.5c-8.1,5.5-17,10.3-26.8,11.8c-5.1,0.8-11-0.1-14.3-4.5c-3.2-4.3-2.8-10-2.4-15c1.6-0.4,3.1-0.8,4.7-0.9
	c-0.5,4.8-2.1,10.8,2.1,14.4c4,2.9,9.2,2,13.7,0.9c11.9-3.6,22.3-10.8,31.7-19c10.7-9.6,20.4-20.9,26.7-33.9
	c2.7-5.8,5.1-12,4.3-18.5c-0.4-3.2-2.8-6.2-6.1-6.7c-5.4-0.9-10.8,0.5-15.8,2.6c-8.9,3.7-16.9,9.2-24.2,15.4
	c-8.9,7.6-17,16.4-23.4,26.3c-1-1-2-2-3-3.1c7.9-12.2,18.4-22.8,30-31.6C27.6,280.3,36.5,275,46.6,272.8 M-93.5,399.8
	c10.3-5.9,23.7-5.9,34.1-0.1c8.3,4.9,15.6,12.6,18.3,22c-2.4,1.2-4.9,2.3-7.3,3.4c-3.4-8.3-9.5-16.2-18.5-18.9
	c-7.4-2.4-15.6-0.2-21.9,4.2c8.2,8.7,17.2,16.7,25.1,25.6c-1.4,1.4-2.7,2.7-4.1,4.1c-8.8-8.5-17.4-17.5-26.2-26
	c-1.9,1.4-3.6,3-5,4.8c8.7,8.7,17.7,17.3,26.1,26.3c-1.4,1.4-2.7,2.7-4.1,4.1C-86,441-94,432-103,423.8c-4.8,6.2-7.3,14.6-4.7,22.1
	c3.1,9.5,11.6,16.1,20.7,19.5c-1.1,2.5-2.4,4.8-3.9,7.1c-9.3-2.6-17.3-8.9-22.6-16.9c-5.4-7.9-7.1-18.3-4.5-27.6
	c1.3-4.7,3.9-8.7,6.4-12.8c-1.7-2-3.5-4-5.3-6c1.4-1.4,2.7-2.7,4.1-4c1.8,1.6,3.6,3.3,5.4,4.9c1.5-1.5,3.9-2.7,4.4-4.8
	c-1.3-2-3-3.6-4.6-5.3c1.3-1.3,2.7-2.7,4-4c2,1.7,3.8,3.7,6.1,5.1C-96.2,401.6-94.9,400.3-93.5,399.8L-93.5,399.8z"/>
<path fill="#3E3E40" d="M28.2,357.9c-0.2-0.6-2-2.7-4.8-5.7L3,362.1c-2.1,8.3-9.6,14.4-18.6,14.4c-10.6,0-19.2-8.5-19.2-19.2
	c0-10.6,8.5-19.2,19.2-19.2c7,0,13,3.7,16.4,9.1C4.2,346,11,343,13.5,342c-8.2-8.2-17.6-17.4-21.1-21.1c-1-1-2-2-3-3
	c-1.7-1.7-3.6-3.9-6.3-3.5c-15.9,0.4-32-0.1-47.8,1.2c-3.6,2.6-6.4,6.2-9.5,9.1c-35.3,35.2-70.5,70.7-105.9,105.7
	c2.4,2.8,4.8,5.5,7.4,7.9c28,27.8,55.6,56,83.8,83.6c9-8.3,17.4-17.3,26.2-25.8c28.1-28.1,56.2-56.3,84.4-84.4
	c2.3-2.5,6.2-4.5,5.8-8.3c0.1-11.3,0.1-22.5,0.2-33.9C27.7,365.7,28.6,361.8,28.2,357.9z M-48.7,425.1c-3.4-8.3-9.5-16.2-18.5-18.9
	c-7.4-2.4-15.6-0.2-21.8,4.2c8.2,8.7,17.2,16.7,25.1,25.6c-1.4,1.3-2.7,2.7-4.1,4.1c-8.8-8.5-17.4-17.5-26.2-26
	c-1.9,1.4-3.6,3-5,4.8c8.7,8.7,17.7,17.3,26.1,26.3c-1.4,1.4-2.8,2.7-4.1,4.1C-86,441-94,432-103,423.8c-4.8,6.2-7.3,14.6-4.7,22.1
	c3.1,9.5,11.6,16.1,20.7,19.5c-1.1,2.5-2.4,4.8-3.9,7.1c-9.3-2.6-17.3-8.9-22.6-16.9c-5.4-7.9-7.1-18.3-4.5-27.6
	c1.3-4.7,3.9-8.7,6.4-12.8c-1.7-2-3.5-4-5.3-6c1.3-1.3,2.7-2.7,4-4c1.8,1.6,3.6,3.3,5.4,5c1.5-1.5,3.9-2.7,4.4-4.8
	c-1.3-2-3-3.6-4.6-5.3c1.3-1.3,2.6-2.7,4-4c2,1.7,3.8,3.7,6.1,5.1c1.5,0.3,2.8-0.9,4.2-1.4c10.3-5.9,23.7-5.9,34.1-0.1
	c8.3,4.9,15.6,12.6,18.2,22C-43.7,423-46.2,424.1-48.7,425.1z"/>
<rect x="-182" y="272.2" fill="none" width="250" height="250"/>
</svg>
