<?xml version="1.0" encoding="utf-8"?>
<!-- Generator: Adobe Illustrator 19.1.0, SVG Export Plug-In . SVG Version: 6.00 Build 0)  -->
<svg version="1.1" id="Layer_1" xmlns="http://www.w3.org/2000/svg" xmlns:xlink="http://www.w3.org/1999/xlink" x="0px" y="0px"
	 viewBox="-191.3 272.3 250 251" enable-background="new -191.3 272.3 250 251" xml:space="preserve">
<g id="Layer_2">
	<g>
		<circle fill="#3E3E40" cx="-67" cy="475.8" r="3.8"/>
		<path fill="#3E3E40" d="M-62.2,500.6V498h-9.4v3l0,0v20.4c0,0.5,0.4,0.9,0.9,0.9h2.1c0.5,0,0.9-0.4,0.9-0.9V501h1.6v20.4
			c0,0.5,0.4,0.9,0.9,0.9h2.1c0.5,0,0.9-0.4,0.9-0.9v-20.7C-62.1,500.7-62.1,500.7-62.2,500.6z"/>
		<path fill="#3E3E40" d="M-58.5,482.9c0-1.1-1.8-2.2-4-2.2h-8.9c-2.2,0-4,0.9-4,2.2c0,0.1,0,0.2,0,0.2c0,0.1,0,0.1,0,0.2v16.2
			c0,0.5,0.4,0.9,0.9,0.9h1.3c0.5,0,0.9-0.4,0.9-0.9v-13h0.6v10.8h9.4v-10.8h0.5v13c0,0.5,0.4,0.9,0.9,0.9h1.3
			c0.5,0,0.9-0.4,0.9-0.9v-16.2c0-0.1,0-0.1,0-0.2C-58.5,483.1-58.5,483-58.5,482.9z"/>
	</g>
	<g>
		<circle fill="#3E3E40" cx="-66.8" cy="419.5" r="3.8"/>
		<path fill="#3E3E40" d="M-62,444.2v-2.6h-9.4v3l0,0v20.4c0,0.5,0.4,0.9,0.9,0.9h2.1c0.5,0,0.9-0.4,0.9-0.9v-20.4h1.6v20.4
			c0,0.5,0.4,0.9,0.9,0.9h2.1c0.5,0,0.9-0.4,0.9-0.9v-20.7C-62,444.3-62,444.3-62,444.2z"/>
		<path fill="#3E3E40" d="M-58.4,426.5c0-1.1-1.8-2.2-4-2.2h-8.9c-2.2,0-4,0.9-4,2.2c0,0.1,0,0.2,0,0.2c0,0.1,0,0.1,0,0.2v16.2
			c0,0.5,0.4,0.9,0.9,0.9h1.3c0.5,0,0.9-0.4,0.9-0.9v-13h0.6v10.8h9.4v-10.8h0.5v13c0,0.5,0.4,0.9,0.9,0.9h1.3
			c0.5,0,0.9-0.4,0.9-0.9v-16.2c0-0.1,0-0.1,0-0.2C-58.4,426.7-58.4,426.6-58.4,426.5z"/>
	</g>
	<g>
		<circle fill="#3E3E40" cx="-67" cy="365" r="3.8"/>
		<path fill="#3E3E40" d="M-62.2,389.7v-2.6h-9.4v3l0,0v20.4c0,0.5,0.4,0.9,0.9,0.9h2.1c0.5,0,0.9-0.4,0.9-0.9v-20.4h1.6v20.4
			c0,0.5,0.4,0.9,0.9,0.9h2.1c0.5,0,0.9-0.4,0.9-0.9v-20.7C-62.1,389.8-62.1,389.8-62.2,389.7z"/>
		<path fill="#3E3E40" d="M-58.5,372c0-1.1-1.8-2.2-4-2.2h-8.9c-2.2,0-4,0.9-4,2.2c0,0.1,0,0.2,0,0.2c0,0.1,0,0.1,0,0.2v16.2
			c0,0.5,0.4,0.9,0.9,0.9h1.3c0.5,0,0.9-0.4,0.9-0.9v-12.8h0.6v10.8h9.4v-10.8h0.5v13c0,0.5,0.4,0.9,0.9,0.9h1.3
			c0.5,0,0.9-0.4,0.9-0.9v-16.2c0-0.1,0-0.1,0-0.2C-58.5,372.2-58.5,372.1-58.5,372z"/>
	</g>
	<g>
		<circle fill="#3E3E40" cx="-83.8" cy="444.6" r="3.8"/>
		<path fill="#3E3E40" d="M-79,469.4v-2.6h-9.4v3l0,0v20.4c0,0.5,0.4,0.9,0.9,0.9h2.1c0.5,0,0.9-0.4,0.9-0.9v-20.4h1.6v20.4
			c0,0.5,0.4,0.9,0.9,0.9h2.1c0.5,0,0.9-0.4,0.9-0.9v-20.7C-79,469.5-79,469.5-79,469.4z"/>
		<path fill="#3E3E40" d="M-75.4,451.7c0-1.1-1.8-2.2-4-2.2h-8.9c-2.2,0-4,0.9-4,2.2c0,0.1,0,0.2,0,0.2c0,0.1,0,0.1,0,0.2v16.2
			c0,0.5,0.4,0.9,0.9,0.9h1.3c0.5,0,0.9-0.4,0.9-0.9v-13h0.6v10.8h9.4v-10.8h0.5v13c0,0.5,0.4,0.9,0.9,0.9h1.3
			c0.5,0,0.9-0.4,0.9-0.9v-16.2c0-0.1,0-0.1,0-0.2C-75.4,451.9-75.4,451.8-75.4,451.7z"/>
	</g>
	<g>
		<circle fill="#3E3E40" cx="-127.1" cy="406.8" r="3.8"/>
		<path fill="#3E3E40" d="M-122.3,431.6V429h-9.4v3l0,0v20.4c0,0.5,0.4,0.9,0.9,0.9h2.1c0.5,0,0.9-0.4,0.9-0.9V432h1.6v20.4
			c0,0.5,0.4,0.9,0.9,0.9h2.1c0.5,0,0.9-0.4,0.9-0.9v-20.7C-122.3,431.7-122.3,431.7-122.3,431.6z"/>
		<path fill="#3E3E40" d="M-118.7,413.9c0-1.1-1.8-2.2-4-2.2h-8.9c-2.2,0-4,0.9-4,2.2c0,0.1,0,0.2,0,0.2c0,0.1,0,0.1,0,0.2v16.2
			c0,0.5,0.4,0.9,0.9,0.9h1.5c0.5,0,0.9-0.4,0.9-0.9v-13h0.6v10.8h9.4v-10.8h0.5v13c0,0.5,0.4,0.9,0.9,0.9h1.3
			c0.5,0,0.9-0.4,0.9-0.9v-16.2c0-0.1,0-0.1,0-0.2C-118.7,414.1-118.7,414-118.7,413.9z"/>
	</g>
	<g>
		<circle fill="#3E3E40" cx="-31.2" cy="429.8" r="3.8"/>
		<path fill="#3E3E40" d="M-26.4,454.6V452h-9.4v3l0,0v20.4c0,0.5,0.4,0.9,0.9,0.9h2.1c0.5,0,0.9-0.4,0.9-0.9V455h1.6v20.4
			c0,0.5,0.4,0.9,0.9,0.9h2.1c0.5,0,0.9-0.4,0.9-0.9v-20.7C-26.4,454.7-26.4,454.7-26.4,454.6z"/>
		<path fill="#3E3E40" d="M-22.8,436.9c0-1.1-1.8-2.2-4-2.2h-8.9c-2.2,0-4,0.9-4,2.2c0,0.1,0,0.2,0,0.2c0,0.1,0,0.1,0,0.2v16.2
			c0,0.5,0.4,0.9,0.9,0.9h1.3c0.5,0,0.9-0.4,0.9-0.9v-13h0.6v10.8h9.4v-10.8h0.5v13c0,0.5,0.4,0.9,0.9,0.9h1.3
			c0.5,0,0.9-0.4,0.9-0.9v-16.2c0-0.1,0-0.1,0-0.2C-22.8,437.1-22.8,437-22.8,436.9z"/>
	</g>
	<g>
		<circle fill="#3E3E40" cx="-50.4" cy="388.9" r="3.8"/>
		<path fill="#3E3E40" d="M-45.7,413.8v-2.6h-9.4v3l0,0v20.4c0,0.5,0.4,0.9,0.9,0.9h2.1c0.5,0,0.9-0.4,0.9-0.9v-20.4h1.6v20.4
			c0,0.5,0.4,0.9,0.9,0.9h2.1c0.5,0,0.9-0.4,0.9-0.9v-20.7C-45.7,413.8-45.7,413.8-45.7,413.8z"/>
		<path fill="#3E3E40" d="M-42,396.1c0-1.1-1.8-2.2-4-2.2H-55c-2.2,0-4,0.9-4,2.2c0,0.1,0,0.2,0,0.2c0,0.1,0,0.1,0,0.2v16.2
			c0,0.5,0.4,0.9,0.9,0.9h1.3c0.5,0,0.9-0.4,0.9-0.9v-13h0.6v10.8h9.4v-10.8h0.5v13c0,0.5,0.4,0.9,0.9,0.9h1.3
			c0.5,0,0.9-0.4,0.9-0.9v-16.2c0-0.1,0-0.1,0-0.2S-42,396.1-42,396.1z"/>
	</g>
	<g>
		<circle fill="#3E3E40" cx="-38.3" cy="345.3" r="3.8"/>
		<path fill="#3E3E40" d="M-33.4,370v-2.6h-9.4v3l0,0v20.4c0,0.5,0.4,0.9,0.9,0.9h2.1c0.5,0,0.9-0.4,0.9-0.9v-20.4h1.6v20.4
			c0,0.5,0.4,0.9,0.9,0.9h2.1c0.5,0,0.9-0.4,0.9-0.9v-20.7C-33.4,370.2-33.4,370.2-33.4,370z"/>
		<path fill="#3E3E40" d="M-29.8,352.3c0-1.1-1.8-2.2-4-2.2h-8.9c-2.2,0-4,0.9-4,2.2c0,0.1,0,0.2,0,0.2c0,0.1,0,0.1,0,0.2v16.2
			c0,0.5,0.4,0.9,0.9,0.9h1.3c0.5,0,0.9-0.4,0.9-0.9v-12.8h0.6v10.8h9.4v-10.8h0.5v13c0,0.5,0.4,0.9,0.9,0.9h1.3
			c0.5,0,0.9-0.4,0.9-0.9v-16.2c0-0.1,0-0.1,0-0.2S-29.8,352.4-29.8,352.3z"/>
	</g>
	<g>
		<circle fill="#3E3E40" cx="-7.1" cy="406.2" r="3.8"/>
		<path fill="#3E3E40" d="M-2.4,431.1v-2.6h-9.4v3l0,0v20.4c0,0.5,0.4,0.9,0.9,0.9h2.1c0.5,0,0.9-0.4,0.9-0.9v-20.4h1.6v20.4
			c0,0.5,0.4,0.9,0.9,0.9h2.1c0.5,0,0.9-0.4,0.9-0.9v-20.7C-2.4,431.1-2.4,431.1-2.4,431.1z"/>
		<path fill="#3E3E40" d="M1.3,413.4c0-1.1-1.8-2.2-4-2.2h-8.9c-2.2,0-4,0.9-4,2.2c0,0.1,0,0.2,0,0.2c0,0.1,0,0.1,0,0.2v16.2
			c0,0.5,0.4,0.9,0.9,0.9h1.3c0.5,0,0.9-0.4,0.9-0.9v-13h0.6v10.8h9.4V417h0.5v13c0,0.5,0.4,0.9,0.9,0.9h1.3c0.5,0,0.9-0.4,0.9-0.9
			v-16.2c0-0.1,0-0.1,0-0.2S1.3,413.5,1.3,413.4z"/>
	</g>
	<g>
		<circle fill="#3E3E40" cx="13.7" cy="382.3" r="3.8"/>
		<path fill="#3E3E40" d="M18.5,407.1v-2.6H9v3l0,0V428c0,0.5,0.4,0.9,0.9,0.9H12c0.5,0,0.9-0.4,0.9-0.9v-20.4h1.6V428
			c0,0.5,0.4,0.9,0.9,0.9h2.1c0.5,0,0.9-0.4,0.9-0.9v-20.7C18.6,407.1,18.6,407.1,18.5,407.1z"/>
		<path fill="#3E3E40" d="M22.2,389.4c0-1.1-1.8-2.2-4-2.2H9.3c-2.2,0-4,0.9-4,2.2c0,0.1,0,0.2,0,0.2c0,0.1,0,0.1,0,0.2V406
			c0,0.5,0.4,0.9,0.9,0.9h1.3c0.5,0,0.9-0.4,0.9-0.9v-13H9v10.9h9.4v-10.8H19V406c0,0.5,0.4,0.9,0.9,0.9h1.3c0.5,0,0.9-0.4,0.9-0.9
			v-16.2c0-0.1,0-0.1,0-0.2S22.2,389.4,22.2,389.4z"/>
	</g>
	<g>
		<circle fill="#3E3E40" cx="-3.5" cy="349.6" r="3.8"/>
		<path fill="#3E3E40" d="M1.3,374.4v-2.6h-9.4v3l0,0v20.4c0,0.5,0.4,0.9,0.9,0.9h2.1c0.5,0,0.9-0.4,0.9-0.9v-20.4h1.6v20.4
			c0,0.5,0.4,0.9,0.9,0.9h2.1c0.5,0,0.9-0.4,0.9-0.9v-20.7C1.3,374.5,1.3,374.5,1.3,374.4z"/>
		<path fill="#3E3E40" d="M4.9,356.7c0-1.1-1.8-2.2-4-2.2h-8.8c-2.2,0-4,0.9-4,2.2c0,0.1,0,0.2,0,0.2c0,0.1,0,0.1,0,0.2v16.2
			c0,0.5,0.4,0.9,0.9,0.9h1.3c0.5,0,0.9-0.4,0.9-0.9v-12.8h0.6v10.8h9.4v-10.8h0.5v13c0,0.5,0.4,0.9,0.9,0.9h1.3
			c0.5,0,0.9-0.4,0.9-0.9v-16.2c0-0.1,0-0.1,0-0.2C4.9,356.9,4.9,356.8,4.9,356.7z"/>
	</g>
	<g>
		<circle fill="#3E3E40" cx="48.1" cy="327.9" r="3.8"/>
		<path fill="#3E3E40" d="M52.9,352.6v-2.6h-9.4v3l0,0v20.4c0,0.5,0.4,0.9,0.9,0.9h2.1c0.5,0,0.9-0.4,0.9-0.9v-20.4h1.6v20.4
			c0,0.5,0.4,0.9,0.9,0.9h2.1c0.5,0,0.9-0.4,0.9-0.9v-20.7C52.9,352.7,52.9,352.7,52.9,352.6z"/>
		<path fill="#3E3E40" d="M56.5,334.9c0-1.1-1.8-2.2-4-2.2h-8.9c-2.2,0-4,0.9-4,2.2c0,0.1,0,0.2,0,0.2c0,0.1,0,0.1,0,0.2v16.2
			c0,0.5,0.4,0.9,0.9,0.9h1.3c0.5,0,0.9-0.4,0.9-0.9v-12.8h0.6v10.8h9.4v-10.8h0.5v13c0,0.5,0.4,0.9,0.9,0.9h1.3
			c0.5,0,0.9-0.4,0.9-0.9v-16.2c0-0.1,0-0.1,0-0.2S56.5,335,56.5,334.9z"/>
	</g>
	<g>
		<circle fill="#3E3E40" cx="14.8" cy="328.6" r="3.8"/>
		<path fill="#3E3E40" d="M19.6,353.4v-2.6h-9.4v3l0,0v20.4c0,0.5,0.4,0.9,0.9,0.9h2.1c0.5,0,0.9-0.4,0.9-0.9v-20.4h1.6v20.4
			c0,0.5,0.4,0.9,0.9,0.9h2.1c0.5,0,0.9-0.4,0.9-0.9v-20.7C19.6,353.5,19.6,353.4,19.6,353.4z"/>
		<path fill="#3E3E40" d="M23.2,335.7c0-1.1-1.8-2.2-4-2.2h-8.9c-2.2,0-4,0.9-4,2.2c0,0.1,0,0.2,0,0.2c0,0.1,0,0.1,0,0.2v16.2
			c0,0.5,0.4,0.9,0.9,0.9h1.3c0.5,0,0.9-0.4,0.9-0.9v-12.8h0.6v10.8h9.4v-10.8H20v13c0,0.5,0.4,0.9,0.9,0.9h1.3
			c0.5,0,0.9-0.4,0.9-0.9v-16.3c0-0.1,0-0.1,0-0.2C23.2,335.9,23.2,335.8,23.2,335.7z"/>
	</g>
	<g>
		<circle fill="#3E3E40" cx="-18.5" cy="322.8" r="3.8"/>
		<path fill="#3E3E40" d="M-13.6,347.6v-2.7h-9.4v3.1l0,0v20.4c0,0.5,0.4,0.9,0.9,0.9h2.1c0.5,0,0.9-0.4,0.9-0.9V348h1.6v20.4
			c0,0.5,0.4,0.9,0.9,0.9h2.1c0.5,0,0.9-0.4,0.9-0.9v-20.7C-13.6,347.7-13.6,347.6-13.6,347.6z"/>
		<path fill="#3E3E40" d="M-10,329.9c0-1.1-1.8-2.2-4-2.2H-23c-2.2,0-4,0.9-4,2.2c0,0.1,0,0.2,0,0.2c0,0.1,0,0.1,0,0.2v16.2
			c0,0.5,0.4,0.9,0.9,0.9h1.3c0.5,0,0.9-0.4,0.9-0.9v-13h0.6v10.8h9.4v-10.8h0.5v13c0,0.5,0.4,0.9,0.9,0.9h1.3
			c0.5,0,0.9-0.4,0.9-0.9v-16.2c0-0.1,0-0.1,0-0.2S-10,330-10,329.9z"/>
	</g>
	<g>
		<circle fill="#3E3E40" cx="12.3" cy="276.2" r="3.8"/>
		<path fill="#3E3E40" d="M17,300.9v-2.6H7.6v3l0,0v20.4c0,0.5,0.4,0.9,0.9,0.9h2.1c0.5,0,0.9-0.4,0.9-0.9v-20.4h1.6v20.4
			c0,0.5,0.4,0.9,0.9,0.9h2.1c0.5,0,0.9-0.4,0.9-0.9V301C17,301,17,301,17,300.9z"/>
		<path fill="#3E3E40" d="M20.6,283.2c0-1.1-1.8-2.2-4-2.2H7.7c-2.2,0-4,0.9-4,2.2c0,0.1,0,0.2,0,0.2c0,0.1,0,0.1,0,0.2v16.2
			c0,0.5,0.4,0.9,0.9,0.9h1.3c0.5,0,0.9-0.4,0.9-0.9V287h0.6v10.8h9.4V287h0.5v13c0,0.5,0.4,0.9,0.9,0.9h1.3c0.5,0,0.9-0.4,0.9-0.9
			v-16.2c0-0.1,0-0.1,0-0.2S20.6,283.3,20.6,283.2z"/>
	</g>
	<g>
		<circle fill="#3E3E40" cx="-35" cy="291.7" r="3.8"/>
		<path fill="#3E3E40" d="M-30.2,316.5v-2.7h-9.4v3.1l0,0v20.4c0,0.5,0.4,0.9,0.9,0.9h2.1c0.5,0,0.9-0.4,0.9-0.9v-20.4h1.6v20.4
			c0,0.5,0.4,0.9,0.9,0.9h2.1c0.5,0,0.9-0.4,0.9-0.9v-20.7C-30.2,316.6-30.2,316.5-30.2,316.5z"/>
		<path fill="#3E3E40" d="M-26.6,298.8c0-1.1-1.8-2.2-4-2.2h-8.9c-2.2,0-4,0.9-4,2.2c0,0.1,0,0.2,0,0.2c0,0.1,0,0.1,0,0.2v16.2
			c0,0.5,0.4,0.9,0.9,0.9h1.3c0.5,0,0.9-0.4,0.9-0.9v-13h0.6v10.8h9.4v-10.8h0.5v13c0,0.5,0.4,0.9,0.9,0.9h1.3
			c0.5,0,0.9-0.4,0.9-0.9v-16.2c0-0.1,0-0.1,0-0.2S-26.6,298.9-26.6,298.8z"/>
	</g>
	<g>
		<circle fill="#3E3E40" cx="-77.7" cy="315.1" r="3.8"/>
		<path fill="#3E3E40" d="M-72.9,339.9v-2.6h-9.4v3l0,0v20.4c0,0.5,0.4,0.9,0.9,0.9h2.1c0.5,0,0.9-0.4,0.9-0.9v-20.4h1.6v20.4
			c0,0.5,0.4,0.9,0.9,0.9h2.1c0.5,0,0.9-0.4,0.9-0.9V340C-72.9,340-72.9,339.9-72.9,339.9z"/>
		<path fill="#3E3E40" d="M-69.3,322.2c0-1.1-1.8-2.2-4-2.2h-8.9c-2.2,0-4,0.9-4,2.2c0,0.1,0,0.2,0,0.2c0,0.1,0,0.1,0,0.2v16.2
			c0,0.5,0.4,0.9,0.9,0.9h1.3c0.5,0,0.9-0.4,0.9-0.9v-13h0.6v10.8h9.4v-10.8h0.5v13c0,0.5,0.4,0.9,0.9,0.9h1.3
			c0.5,0,0.9-0.4,0.9-0.9v-16.2c0-0.1,0-0.1,0-0.2C-69.3,322.4-69.3,322.3-69.3,322.2z"/>
	</g>
	<g>
		<circle fill="#3E3E40" cx="-99.3" cy="291.7" r="3.8"/>
		<path fill="#3E3E40" d="M-94.5,316.5v-2.6h-9.4v3l0,0v20.4c0,0.5,0.4,0.9,0.9,0.9h2.1c0.5,0,0.9-0.4,0.9-0.9v-20.4h1.6v20.4
			c0,0.5,0.4,0.9,0.9,0.9h2.1c0.5,0,0.9-0.4,0.9-0.9v-20.7C-94.5,316.6-94.5,316.6-94.5,316.5z"/>
		<path fill="#3E3E40" d="M-90.8,298.8c0-1.1-1.8-2.2-4-2.2h-8.9c-2.2,0-4,0.9-4,2.2c0,0.1,0,0.2,0,0.2c0,0.1,0,0.1,0,0.2v16.2
			c0,0.5,0.4,0.9,0.9,0.9h1.3c0.5,0,0.9-0.4,0.9-0.9v-12.8h0.6v10.8h9.4v-10.8h0.6v13c0,0.5,0.4,0.9,0.9,0.9h1.3
			c0.5,0,0.9-0.4,0.9-0.9v-16.2c0-0.1,0-0.1,0-0.2C-90.8,299-90.8,298.9-90.8,298.8z"/>
	</g>
	<g>
		<circle fill="#3E3E40" cx="-96.1" cy="346" r="3.8"/>
		<path fill="#3E3E40" d="M-91.4,370.9v-2.6h-9.4v3l0,0v20.4c0,0.5,0.4,0.9,0.9,0.9h2.1c0.5,0,0.9-0.4,0.9-0.9v-20.4h1.6v20.4
			c0,0.5,0.4,0.9,0.9,0.9h2.1c0.5,0,0.9-0.4,0.9-0.9V371C-91.4,370.9-91.4,370.9-91.4,370.9z"/>
		<path fill="#3E3E40" d="M-87.7,353.2c0-1.1-1.8-2.2-4-2.2h-8.9c-2.2,0-4,0.9-4,2.2c0,0.1,0,0.2,0,0.2c0,0.1,0,0.1,0,0.2v16.2
			c0,0.5,0.4,0.9,0.9,0.9h1.3c0.5,0,0.9-0.4,0.9-0.9v-13h0.6v10.9h9.4v-10.9h0.6v13c0,0.5,0.4,0.9,0.9,0.9h1.3
			c0.5,0,0.9-0.4,0.9-0.9v-16.2c0-0.1,0-0.1,0-0.2C-87.7,353.3-87.7,353.2-87.7,353.2z"/>
	</g>
	<g>
		<circle fill="#3E3E40" cx="-111.7" cy="377" r="3.8"/>
		<path fill="#3E3E40" d="M-106.9,401.8v-2.6h-9.4v3l0,0v20.4c0,0.5,0.4,0.9,0.9,0.9h2.1c0.5,0,0.9-0.4,0.9-0.9v-20.4h1.6v20.4
			c0,0.5,0.4,0.9,0.9,0.9h2.1c0.5,0,0.9-0.4,0.9-0.9v-20.7C-106.9,401.9-106.9,401.8-106.9,401.8z"/>
		<path fill="#3E3E40" d="M-103.3,384c0-1.1-1.8-2.2-4-2.2h-8.9c-2.2,0-4,0.9-4,2.2c0,0.1,0,0.2,0,0.2c0,0.1,0,0.1,0,0.2v16.2
			c0,0.5,0.4,0.9,0.9,0.9h1.3c0.5,0,0.9-0.4,0.9-0.9v-13h0.6v10.8h9.4v-10.8h0.6v13c0,0.5,0.4,0.9,0.9,0.9h1.3
			c0.5,0,0.9-0.4,0.9-0.9v-16.2c0-0.1,0-0.1,0-0.2C-103.3,384.2-103.3,384.1-103.3,384z"/>
	</g>
	<g>
		<circle fill="#3E3E40" cx="-130.9" cy="349.2" r="3.8"/>
		<path fill="#3E3E40" d="M-126.1,374v-2.6h-9.4v3l0,0v20.4c0,0.5,0.4,0.9,0.9,0.9h2.1c0.5,0,0.9-0.4,0.9-0.9v-20.4h1.6v20.4
			c0,0.5,0.4,0.9,0.9,0.9h2.1c0.5,0,0.9-0.4,0.9-0.9v-20.7C-126.1,374.1-126.1,374-126.1,374z"/>
		<path fill="#3E3E40" d="M-122.4,356.3c0-1.1-1.8-2.2-4-2.2h-8.9c-2.2,0-4,0.9-4,2.2c0,0.1,0,0.2,0,0.2c0,0.1,0,0.1,0,0.2v16.2
			c0,0.5,0.4,0.9,0.9,0.9h1.3c0.5,0,0.9-0.4,0.9-0.9v-13h0.6v10.9h9.5v-10.9h0.5v13c0,0.5,0.4,0.9,0.9,0.9h1.3
			c0.5,0,0.9-0.4,0.9-0.9v-16.2c0-0.1,0-0.1,0-0.2C-122.4,356.5-122.4,356.4-122.4,356.3z"/>
	</g>
	<g>
		<circle fill="#3E3E40" cx="-165.3" cy="359.9" r="3.8"/>
		<path fill="#3E3E40" d="M-160.5,384.7v-2.6h-9.4v3l0,0v20.4c0,0.5,0.4,0.9,0.9,0.9h2.1c0.5,0,0.9-0.4,0.9-0.9v-20.4h1.6v20.4
			c0,0.5,0.4,0.9,0.9,0.9h2.1c0.5,0,0.9-0.4,0.9-0.9v-20.7C-160.5,384.8-160.5,384.8-160.5,384.7z"/>
		<path fill="#3E3E40" d="M-156.8,366.9c0-1.1-1.8-2.2-4-2.2h-8.9c-2.2,0-4,0.9-4,2.2c0,0.1,0,0.2,0,0.2c0,0.1,0,0.1,0,0.2v16.2
			c0,0.5,0.4,0.9,0.9,0.9h1.3c0.5,0,0.9-0.4,0.9-0.9v-12.8h0.6v10.8h9.4v-10.8h0.5v13c0,0.5,0.4,0.9,0.9,0.9h1.3
			c0.5,0,0.9-0.4,0.9-0.9v-16.2c0-0.1,0-0.1,0-0.2S-156.8,367-156.8,366.9z"/>
	</g>
	<g>
		<circle fill="#3E3E40" cx="-149.9" cy="328.4" r="3.8"/>
		<path fill="#3E3E40" d="M-145.1,353.3v-2.6h-9.4v3l0,0v20.4c0,0.5,0.4,0.9,0.9,0.9h2.1c0.5,0,0.9-0.4,0.9-0.9v-20.4h1.6v20.4
			c0,0.5,0.4,0.9,0.9,0.9h2.1c0.5,0,0.9-0.4,0.9-0.9v-20.7C-145.1,353.3-145.1,353.3-145.1,353.3z"/>
		<path fill="#3E3E40" d="M-141.5,335.5c0-1.1-1.8-2.2-4-2.2h-8.9c-2.2,0-4,0.9-4,2.2c0,0.1,0,0.2,0,0.2c0,0.1,0,0.1,0,0.2v16.2
			c0,0.5,0.4,0.9,0.9,0.9h1.3c0.5,0,0.9-0.4,0.9-0.9v-13h0.6v10.9h9.4v-10.9h0.5v13c0,0.5,0.4,0.9,0.9,0.9h1.3
			c0.5,0,0.9-0.4,0.9-0.9V336c0-0.1,0-0.1,0-0.2C-141.5,335.7-141.5,335.7-141.5,335.5z"/>
	</g>
	<g>
		<circle fill="#3E3E40" cx="-166.6" cy="290.1" r="3.8"/>
		<path fill="#3E3E40" d="M-161.8,314.8v-2.6h-9.4v3l0,0v20.4c0,0.5,0.4,0.9,0.9,0.9h2.1c0.5,0,0.9-0.4,0.9-0.9v-20.4h1.6v20.4
			c0,0.5,0.4,0.9,0.9,0.9h2.1c0.5,0,0.9-0.4,0.9-0.9v-20.7C-161.8,314.9-161.8,314.8-161.8,314.8z"/>
		<path fill="#3E3E40" d="M-158.2,297.1c0-1.1-1.8-2.2-4-2.2h-8.9c-2.2,0-4,0.9-4,2.2c0,0.1,0,0.2,0,0.2c0,0.1,0,0.1,0,0.2v16.2
			c0,0.5,0.4,0.9,0.9,0.9h1.3c0.5,0,0.9-0.4,0.9-0.9v-13h0.6v10.8h9.4v-10.8h0.6v13c0,0.5,0.4,0.9,0.9,0.9h1.3
			c0.5,0,0.9-0.4,0.9-0.9v-16.2c0-0.1,0-0.1,0-0.2C-158.2,297.3-158.2,297.2-158.2,297.1z"/>
	</g>
	<g>
		<circle fill="#3E3E40" cx="-125.9" cy="279.4" r="3.8"/>
		<path fill="#3E3E40" d="M-121.1,304.2v-2.6h-9.4v3l0,0V325c0,0.5,0.4,0.9,0.9,0.9h2.1c0.5,0,0.9-0.4,0.9-0.9v-20.4h1.6V325
			c0,0.5,0.4,0.9,0.9,0.9h2.1c0.5,0,0.9-0.4,0.9-0.9v-20.7C-121.1,304.3-121.1,304.2-121.1,304.2z"/>
		<path fill="#3E3E40" d="M-117.4,286.4c0-1.1-1.8-2.2-4-2.2h-8.9c-2.2,0-4,0.9-4,2.2c0,0.1,0,0.2,0,0.2c0,0.1,0,0.1,0,0.2V303
			c0,0.5,0.4,0.9,0.9,0.9h1.3c0.5,0,0.9-0.4,0.9-0.9v-13h0.6v10.8h9.4v-10.8h0.5v13c0,0.5,0.4,0.9,0.9,0.9h1.3
			c0.5,0,0.9-0.4,0.9-0.9v-16.2c0-0.1,0-0.1,0-0.2C-117.5,286.6-117.4,286.5-117.4,286.4z"/>
	</g>
</g>
<g id="Layer_3">
	<g>
		<circle fill="#F5A313" cx="-23" cy="377" r="3.8"/>
		<path fill="#F5A313" d="M-18.1,401.8v-2.6h-9.5v3l0,0v20.4c0,0.5,0.4,0.9,0.9,0.9h2.1c0.5,0,0.9-0.4,0.9-0.9v-20.4h1.6v20.4
			c0,0.5,0.4,0.9,0.9,0.9h2.1c0.5,0,0.9-0.4,0.9-0.9v-20.7C-18.1,401.9-18.1,401.8-18.1,401.8z"/>
		<path fill="#F5A313" d="M-14.5,384c0-1.1-1.8-2.2-4-2.2h-8.9c-2.2,0-4,0.9-4,2.2c0,0.1,0,0.2,0,0.2c0,0.1,0,0.1,0,0.2v16.2
			c0,0.5,0.4,0.9,0.9,0.9h1.3c0.5,0,0.9-0.4,0.9-0.9v-13h0.6v10.8h9.4v-10.8h0.5v13c0,0.5,0.4,0.9,0.9,0.9h1.3
			c0.5,0,0.9-0.4,0.9-0.9v-16.2c0-0.1,0-0.1,0-0.2C-14.5,384.2-14.5,384.1-14.5,384z"/>
	</g>
	<g>
		<circle fill="#F5A313" cx="31.5" cy="360.3" r="3.8"/>
		<path fill="#F5A313" d="M36.3,385.2v-2.6h-9.4v3l0,0V406c0,0.5,0.4,0.9,0.9,0.9h2.1c0.5,0,0.9-0.4,0.9-0.9v-20.4h1.6V406
			c0,0.5,0.4,0.9,0.9,0.9h2.1c0.5,0,0.9-0.4,0.9-0.9v-20.7C36.3,385.2,36.3,385.2,36.3,385.2z"/>
		<path fill="#F5A313" d="M39.9,367.5c0-1.1-1.8-2.2-4-2.2H27c-2.2,0-4,0.9-4,2.2c0,0.1,0,0.2,0,0.2c0,0.1,0,0.1,0,0.2V384
			c0,0.5,0.4,0.9,0.9,0.9h1.3c0.5,0,0.9-0.4,0.9-0.9v-13h0.6v10.8h9.4v-10.8h0.5v13c0,0.5,0.4,0.9,0.9,0.9H39c0.5,0,0.9-0.4,0.9-0.9
			v-16.2c0-0.1,0-0.1,0-0.2S39.9,367.5,39.9,367.5z"/>
	</g>
	<g>
		<circle fill="#F5A313" cx="32.4" cy="290" r="3.8"/>
		<path fill="#F5A313" d="M37.1,314.7v-2.6h-9.4v3l0,0v20.4c0,0.5,0.4,0.9,0.9,0.9h2.1c0.5,0,0.9-0.4,0.9-0.9v-20.4h1.6v20.4
			c0,0.5,0.4,0.9,0.9,0.9h2.1c0.5,0,0.9-0.4,0.9-0.9v-20.7C37.1,314.8,37.1,314.7,37.1,314.7z"/>
		<path fill="#F5A313" d="M40.7,297c0-1.1-1.8-2.2-4-2.2h-8.9c-2.2,0-4,0.9-4,2.2c0,0.1,0,0.2,0,0.2c0,0.1,0,0.1,0,0.2v16.2
			c0,0.5,0.4,0.9,0.9,0.9H26c0.5,0,0.9-0.4,0.9-0.9v-13h0.6v10.8H37v-10.8h0.5v13c0,0.5,0.4,0.9,0.9,0.9h1.3c0.5,0,0.9-0.4,0.9-0.9
			v-16.2c0-0.1,0-0.1,0-0.2C40.7,297.2,40.7,297.1,40.7,297z"/>
	</g>
	<g>
		<circle fill="#F5A313" cx="-7.8" cy="279.4" r="3.8"/>
		<path fill="#F5A313" d="M-3.1,304.2v-2.6h-9.4v3l0,0V325c0,0.5,0.4,0.9,0.9,0.9h2.1c0.5,0,0.9-0.4,0.9-0.9v-20.4H-7V325
			c0,0.5,0.4,0.9,0.9,0.9H-4c0.5,0,0.9-0.4,0.9-0.9v-20.7C-3.1,304.3-3.1,304.2-3.1,304.2z"/>
		<path fill="#F5A313" d="M0.5,286.4c0-1.1-1.8-2.2-4-2.2h-8.9c-2.2,0-4,0.9-4,2.2c0,0.1,0,0.2,0,0.2c0,0.1,0,0.1,0,0.2V303
			c0,0.5,0.4,0.9,0.9,0.9h1.3c0.5,0,0.9-0.4,0.9-0.9v-13h0.6v10.8h9.4v-10.8h0.5v13c0,0.5,0.4,0.9,0.9,0.9h1.3
			c0.5,0,0.9-0.4,0.9-0.9v-16.2c0-0.1,0-0.1,0-0.2C0.5,286.6,0.5,286.5,0.5,286.4z"/>
	</g>
	<g>
		<circle fill="#F5A313" cx="-55.6" cy="315.1" r="3.8"/>
		<path fill="#F5A313" d="M-50.8,339.9v-2.6h-9.4v3l0,0v20.4c0,0.5,0.4,0.9,0.9,0.9h2.1c0.5,0,0.9-0.4,0.9-0.9v-20.4h1.6v20.4
			c0,0.5,0.4,0.9,0.9,0.9h2.1c0.5,0,0.9-0.4,0.9-0.9V340C-50.7,340-50.7,339.9-50.8,339.9z"/>
		<path fill="#F5A313" d="M-47.1,322.2c0-1.1-1.8-2.2-4-2.2h-8.9c-2.2,0-4,0.9-4,2.2c0,0.1,0,0.2,0,0.2c0,0.1,0,0.1,0,0.2v16.2
			c0,0.5,0.4,0.9,0.9,0.9h1.3c0.5,0,0.9-0.4,0.9-0.9v-13h0.6v10.8h9.4v-10.8h0.5v13c0,0.5,0.4,0.9,0.9,0.9h1.3
			c0.5,0,0.9-0.4,0.9-0.9v-16.2c0-0.1,0-0.1,0-0.2C-47.1,322.4-47.1,322.3-47.1,322.2z"/>
	</g>
	<g>
		<circle fill="#F5A313" cx="-147" cy="276.2" r="3.8"/>
		<path fill="#F5A313" d="M-142.2,300.9v-2.7h-9.4v3.1l0,0v20.4c0,0.5,0.4,0.9,0.9,0.9h2.1c0.5,0,0.9-0.4,0.9-0.9v-20.4h1.6v20.4
			c0,0.5,0.4,0.9,0.9,0.9h2.1c0.5,0,0.9-0.4,0.9-0.9V301C-142.2,301-142.2,300.9-142.2,300.9z"/>
		<path fill="#F5A313" d="M-138.6,283.2c0-1.1-1.8-2.2-4-2.2h-8.9c-2.2,0-4,0.9-4,2.2c0,0.1,0,0.2,0,0.2c0,0.1,0,0.1,0,0.2v16.2
			c0,0.5,0.4,0.9,0.9,0.9h1.3c0.5,0,0.9-0.4,0.9-0.9v-13h0.6v10.8h9.4v-10.8h0.5v13c0,0.5,0.4,0.9,0.9,0.9h1.3
			c0.5,0,0.9-0.4,0.9-0.9v-16.2c0-0.1,0-0.1,0-0.2S-138.6,283.3-138.6,283.2z"/>
	</g>
	<g>
		<circle fill="#F5A313" cx="-115.4" cy="322.1" r="3.8"/>
		<path fill="#F5A313" d="M-110.5,346.8v-2.6h-9.4v3l0,0v20.4c0,0.5,0.4,0.9,0.9,0.9h2.1c0.5,0,0.9-0.4,0.9-0.9v-20.4h1.6v20.4
			c0,0.5,0.4,0.9,0.9,0.9h2.1c0.5,0,0.9-0.4,0.9-0.9v-20.7C-110.5,346.9-110.5,346.9-110.5,346.8z"/>
		<path fill="#F5A313" d="M-106.9,329.1c0-1.1-1.8-2.2-4-2.2h-8.9c-2.2,0-4,0.9-4,2.2c0,0.1,0,0.2,0,0.2c0,0.1,0,0.1,0,0.2v16.2
			c0,0.5,0.4,0.9,0.9,0.9h1.3c0.5,0,0.9-0.4,0.9-0.9v-12.8h0.6v10.8h9.5v-10.8h0.5v13c0,0.5,0.4,0.9,0.9,0.9h1.3
			c0.5,0,0.9-0.4,0.9-0.9v-16.2c0-0.1,0-0.1,0-0.2C-106.9,329.3-106.9,329.2-106.9,329.1z"/>
	</g>
	<g>
		<circle fill="#F5A313" cx="-181.8" cy="327.8" r="3.8"/>
		<path fill="#F5A313" d="M-177,352.6v-2.6h-9.4v3l0,0v20.4c0,0.5,0.4,0.9,0.9,0.9h2.1c0.5,0,0.9-0.4,0.9-0.9V353h1.6v20.4
			c0,0.5,0.4,0.9,0.9,0.9h2.1c0.5,0,0.9-0.4,0.9-0.9V352.6C-177,352.6-177,352.6-177,352.6z"/>
		<path fill="#F5A313" d="M-173.4,334.9c0-1.1-1.8-2.2-4-2.2h-8.8c-2.2,0-4,0.9-4,2.2c0,0.1,0,0.2,0,0.2c0,0.1,0,0.1,0,0.2v16.2
			c0,0.5,0.4,0.9,0.9,0.9h1.3c0.5,0,0.9-0.4,0.9-0.9v-13h0.6v10.8h9.4v-10.8h0.5v13c0,0.5,0.4,0.9,0.9,0.9h1.3
			c0.5,0,0.9-0.4,0.9-0.9v-16.2c0-0.1,0-0.1,0-0.2C-173.4,335-173.4,334.9-173.4,334.9z"/>
	</g>
	<g>
		<circle fill="#F5A313" cx="-147.8" cy="382.3" r="3.8"/>
		<path fill="#F5A313" d="M-142.9,407.1v-2.6h-9.4v3l0,0V428c0,0.5,0.4,0.9,0.9,0.9h2.1c0.5,0,0.9-0.4,0.9-0.9v-20.4h1.6V428
			c0,0.5,0.4,0.9,0.9,0.9h2.1c0.5,0,0.9-0.4,0.9-0.9v-20.7C-142.9,407.1-142.9,407.1-142.9,407.1z"/>
		<path fill="#F5A313" d="M-139.3,389.4c0-1.1-1.8-2.2-4-2.2h-8.9c-2.2,0-4,0.9-4,2.2c0,0.1,0,0.2,0,0.2c0,0.1,0,0.1,0,0.2V406
			c0,0.5,0.4,0.9,0.9,0.9h1.3c0.5,0,0.9-0.4,0.9-0.9v-13h0.6v10.9h9.4v-10.8h0.5V406c0,0.5,0.4,0.9,0.9,0.9h1.3
			c0.5,0,0.9-0.4,0.9-0.9v-16.2c0-0.1,0-0.1,0-0.2S-139.3,389.4-139.3,389.4z"/>
	</g>
	<g>
		<circle fill="#F5A313" cx="-84.4" cy="388.6" r="3.8"/>
		<path fill="#F5A313" d="M-79.6,413.5v-2.6h-9.4v3l0,0v20.4c0,0.5,0.4,0.9,0.9,0.9h2.1c0.5,0,0.9-0.4,0.9-0.9v-20.4h1.6v20.4
			c0,0.5,0.4,0.9,0.9,0.9h2.1c0.5,0,0.9-0.4,0.9-0.9v-20.7C-79.6,413.6-79.6,413.5-79.6,413.5z"/>
		<path fill="#F5A313" d="M-76,395.7c0-1.1-1.8-2.2-4-2.2H-89c-2.2,0-4,0.9-4,2.2c0,0.1,0,0.2,0,0.2c0,0.1,0,0.1,0,0.2v16.2
			c0,0.5,0.4,0.9,0.9,0.9h1.3c0.5,0,0.9-0.4,0.9-0.9v-13h0.6v10.8h9.4v-10.8h0.5v13c0,0.5,0.4,0.9,0.9,0.9h1.3
			c0.5,0,0.9-0.4,0.9-0.9v-16.2c0-0.1,0-0.1,0-0.2C-76,395.8-76,395.8-76,395.7z"/>
	</g>
	<g>
		<circle fill="#F5A313" cx="-103.3" cy="430.6" r="3.8"/>
		<path fill="#F5A313" d="M-98.5,455.4v-2.6h-9.4v3l0,0v20.4c0,0.5,0.4,0.9,0.9,0.9h2.1c0.5,0,0.9-0.4,0.9-0.9v-20.5h1.6v20.4
			c0,0.5,0.4,0.9,0.9,0.9h2.1c0.5,0,0.9-0.4,0.9-0.9L-98.5,455.4C-98.4,455.4-98.5,455.4-98.5,455.4z"/>
		<path fill="#F5A313" d="M-94.8,437.7c0-1.1-1.8-2.2-4-2.2h-8.9c-2.2,0-4,0.9-4,2.2c0,0.1,0,0.2,0,0.2c0,0.1,0,0.1,0,0.2v16.2
			c0,0.5,0.4,0.9,0.9,0.9h1.3c0.5,0,0.9-0.4,0.9-0.9v-13h0.6v10.8h9.4v-10.8h0.5v13c0,0.5,0.4,0.9,0.9,0.9h1.3
			c0.5,0,0.9-0.4,0.9-0.9v-16.2c0-0.1,0-0.1,0-0.2C-94.9,437.8-94.8,437.7-94.8,437.7z"/>
	</g>
	<g>
		<circle fill="#F5A313" cx="-50.9" cy="445.4" r="3.8"/>
		<path fill="#F5A313" d="M-46.2,470.2v-2.6h-9.4v3l0,0v20.4c0,0.5,0.4,0.9,0.9,0.9h2.1c0.5,0,0.9-0.4,0.9-0.9v-20.4h1.6v20.4
			c0,0.5,0.4,0.9,0.9,0.9h2.1c0.5,0,0.9-0.4,0.9-0.9v-20.7C-46.1,470.3-46.1,470.2-46.2,470.2z"/>
		<path fill="#F5A313" d="M-42.4,452.5c0-1.1-1.8-2.2-4-2.2h-8.9c-2.2,0-4,0.9-4,2.2c0,0.1,0,0.2,0,0.2c0,0.1,0,0.1,0,0.2v16.2
			c0,0.5,0.4,0.9,0.9,0.9h1.3c0.5,0,0.9-0.4,0.9-0.9v-13h0.6v10.8h9.4v-10.8h0.5v13c0,0.5,0.4,0.9,0.9,0.9h1.3
			c0.5,0,0.9-0.4,0.9-0.9v-16.2c0-0.1,0-0.1,0-0.2C-42.4,452.6-42.4,452.6-42.4,452.5z"/>
	</g>
</g>
<rect x="-191.3" y="273.3" fill="none" width="250" height="250"/>
</svg>
