<?xml version="1.0" encoding="utf-8"?>
<!-- Generator: Adobe Illustrator 19.1.0, SVG Export Plug-In . SVG Version: 6.00 Build 0)  -->
<svg version="1.1" xmlns="http://www.w3.org/2000/svg" xmlns:xlink="http://www.w3.org/1999/xlink" x="0px" y="0px"
	 viewBox="0 0 409.4 71.5" enable-background="new 0 0 409.4 71.5" xml:space="preserve">
<g id="Layer_4" display="none">
	<g display="inline">
		<g>
			<path d="M49.5,80.9c0-0.2,0.2-0.3,0.3-0.3h0H55c0.2,0,0.3,0.2,0.3,0.3c0,0.2-0.1,0.4-0.3,0.4h-4.7v3.9h4.1c0.2,0,0.3,0.2,0.3,0.4
				c0,0.2-0.2,0.3-0.3,0.3h-4.1v3.9H55c0.2,0,0.3,0.2,0.3,0.4c0,0.2-0.1,0.3-0.3,0.3h-5h0h0c-0.2,0-0.3-0.2-0.3-0.3V80.9z"/>
			<path d="M67.6,86.4c0-1.2-1-2.1-2.1-2.1c-1.2,0-2.1,1-2.1,2.1v3.8v0c0,0,0,0,0,0v0c0,0.1-0.1,0.1-0.2,0.2c-0.1,0-0.1,0-0.2,0h0h0
				c0,0,0,0,0,0c0,0-0.1,0-0.1,0c0,0,0,0,0,0l0,0c0,0,0,0,0,0c0,0,0,0,0,0c0,0,0,0,0,0c0,0,0,0,0,0v0v0v-3.8c0-1.2-0.9-2.1-2.1-2.1
				s-2.1,1-2.1,2.1v3.8c0,0.1-0.1,0.2-0.2,0.3c0,0-0.1,0-0.1,0c0,0,0,0-0.1,0h0h0c-0.1,0-0.2-0.1-0.3-0.3v-0.1v-3.8v-0.1v-2.4
				c0-0.2,0.2-0.3,0.3-0.3c0.2,0,0.3,0.1,0.3,0.3v0.7c0.5-0.6,1.3-1,2.1-1c1.1,0,2,0.6,2.5,1.5c0.5-0.9,1.4-1.5,2.5-1.5
				c1.6,0,2.8,1.3,2.8,2.8v3.8c0,0.2-0.1,0.3-0.3,0.3c-0.2,0-0.3-0.2-0.3-0.3V86.4z"/>
			<path d="M71.2,87.1V87v-0.1v-2.9c0-0.2,0.2-0.3,0.3-0.3c0.2,0,0.4,0.2,0.4,0.3v1c0.6-0.8,1.6-1.3,2.6-1.3c1.9,0,3.3,1.5,3.3,3.4
				c0,1.9-1.5,3.4-3.3,3.4c-1.1,0-2-0.5-2.6-1.4V93c0,0.2-0.2,0.3-0.4,0.3c-0.2,0-0.3-0.2-0.3-0.3V87.1z M71.9,87
				c0,1.5,1.2,2.8,2.6,2.8c1.5,0,2.7-1.2,2.7-2.8c0-1.5-1.2-2.7-2.7-2.7c-1.4,0-2.6,1.2-2.6,2.6V87z"/>
			<path d="M83.4,83.6c1.8,0,3.3,1.6,3.3,3.5c0,1.9-1.5,3.5-3.3,3.5c-1.8,0-3.3-1.6-3.3-3.5C80.2,85.1,81.6,83.6,83.4,83.6z
				 M83.4,89.8c1.4,0,2.6-1.2,2.6-2.8c0-1.5-1.2-2.8-2.6-2.8c-1.4,0-2.6,1.3-2.6,2.8C80.8,88.6,82,89.8,83.4,89.8z"/>
			<path d="M91.1,90.4c-0.1,0-0.1-0.1-0.1-0.2l-2.6-6.2c-0.1-0.2,0-0.4,0.2-0.4c0.2-0.1,0.4,0,0.4,0.2l2.3,5.4l1.6-3.8
				c0.1-0.1,0.2-0.2,0.3-0.2c0.1,0,0.3,0.1,0.3,0.2l1.6,3.8l2.3-5.4c0.1-0.2,0.3-0.3,0.4-0.2c0.2,0.1,0.3,0.3,0.2,0.4l-2.6,6.1
				c0,0.1-0.1,0.1-0.1,0.2c-0.1,0-0.1,0.1-0.2,0.1h0h0c-0.1,0-0.2-0.1-0.3-0.2l0,0l-1.6-3.8l-1.6,3.8c0,0,0,0,0,0
				c0,0.1-0.2,0.2-0.3,0.2C91.2,90.5,91.2,90.5,91.1,90.4C91.1,90.4,91.1,90.4,91.1,90.4z"/>
			<path d="M99.6,87c0-1.9,1.5-3.5,3.4-3.5c1.8,0,3.2,1.4,3.3,3.2v0v0c0,0.2-0.2,0.3-0.3,0.3h-5.7c0.1,1.5,1.3,2.7,2.7,2.7
				c0.9,0,1.8-0.5,2.2-1.3c0.1-0.2,0.3-0.2,0.5-0.1c0.2,0.1,0.2,0.3,0.1,0.5c-0.6,0.9-1.6,1.6-2.8,1.6C101.1,90.5,99.6,88.9,99.6,87
				z M100.3,86.5h5.2c-0.2-1.3-1.3-2.2-2.6-2.2C101.6,84.2,100.5,85.2,100.3,86.5z"/>
			<path d="M108.3,83.9c0-0.2,0.2-0.3,0.4-0.3c0.2,0,0.3,0.1,0.3,0.3v1.5c0-0.1,0.1-0.1,0.1-0.2c0.5-0.8,1.4-1.7,2.8-1.7
				c0.2,0,0.3,0.1,0.3,0.3c0,0.2-0.2,0.3-0.3,0.3c-0.9,0-1.5,0.5-2,1.1c-0.5,0.6-0.7,1.3-0.8,1.6c0,0.1,0,0.1,0,0.1v3
				c0,0.2-0.2,0.3-0.3,0.3c-0.2,0-0.4-0.1-0.4-0.3V83.9z"/>
			<path d="M114.6,81.6c0-0.2,0.2-0.3,0.3-0.3c0.2,0,0.4,0.2,0.4,0.3V82c0,0.2-0.2,0.4-0.4,0.4c-0.2,0-0.3-0.2-0.3-0.4V81.6z
				 M114.6,83.9c0-0.2,0.2-0.3,0.3-0.3c0.2,0,0.4,0.1,0.4,0.3v6.2c0,0.2-0.2,0.3-0.4,0.3c-0.2,0-0.3-0.2-0.3-0.3V83.9z"/>
			<path d="M123.4,86.4c0-1.2-0.9-2.1-2.1-2.1c-1.2,0-2.1,1-2.1,2.1v3.8v0.1c0,0.1,0,0.1-0.1,0.2c-0.1,0.1-0.2,0.1-0.3,0.1h-0.1
				c-0.1,0-0.2-0.1-0.2-0.2c0,0,0,0,0,0s0,0,0,0v-0.1v-3.8v-0.1v-2.4c0-0.2,0.1-0.3,0.3-0.3c0.2,0,0.3,0.2,0.3,0.3v0.7
				c0.5-0.6,1.3-1,2.1-1c1.6,0,2.8,1.3,2.8,2.8v3.8c0,0.2-0.2,0.3-0.3,0.3c-0.2,0-0.3-0.1-0.3-0.3V86.4z"/>
			<path d="M133.2,89.9c0,1.8-1.5,3.2-3.3,3.2c-0.5,0-1-0.1-1.4-0.3c-0.1-0.1-0.2-0.3-0.1-0.5c0.1-0.2,0.3-0.3,0.5-0.2
				c0.4,0.2,0.7,0.3,1.1,0.3c1.4,0,2.6-1.1,2.6-2.6v-0.8c-0.6,0.8-1.5,1.4-2.6,1.4c-1.8,0-3.2-1.5-3.2-3.4c0-1.9,1.4-3.4,3.2-3.4
				c1.1,0,2,0.5,2.6,1.4v-1c0-0.2,0.2-0.3,0.4-0.3c0.2,0,0.3,0.2,0.3,0.3V89.9z M132.5,87c0-1.5-1.2-2.8-2.6-2.8
				c-1.4,0-2.6,1.2-2.6,2.8c0,1.6,1.2,2.8,2.6,2.8C131.4,89.8,132.5,88.5,132.5,87z"/>
			<path d="M140.4,88.6c0.1-0.1,0.3-0.2,0.4,0c0.7,0.6,2,1.3,3.2,1.3c0.9,0,1.6-0.3,2.2-0.6c0.5-0.4,0.8-0.9,0.8-1.5
				c0-0.6-0.3-1-0.8-1.4c-0.5-0.4-1.3-0.6-2.3-0.8h0c-0.9-0.2-1.7-0.4-2.3-0.8c-0.6-0.4-1-1-1-1.7c0-0.7,0.4-1.4,1-1.8
				c0.6-0.5,1.5-0.7,2.4-0.7c1.3,0,2.3,0.6,3,1.1c0.1,0.1,0.2,0.3,0.1,0.4c-0.1,0.1-0.3,0.2-0.4,0.1c-0.8-0.5-1.6-1-2.7-1
				c-0.8,0-1.5,0.2-2,0.6c-0.5,0.4-0.8,0.8-0.8,1.4c0,0.5,0.2,0.9,0.7,1.2s1.2,0.6,2.1,0.7h0c1,0.2,1.9,0.5,2.5,0.9
				c0.6,0.4,1.1,1.1,1.1,1.9c0,0.8-0.5,1.5-1.1,2c-0.7,0.5-1.6,0.8-2.5,0.8c-1.5,0-2.8-0.8-3.6-1.4
				C140.3,88.9,140.3,88.8,140.4,88.6z"/>
			<path d="M157.9,82l-3.2,4.4c-0.1,0.1-0.2,0.2-0.3,0.2h0c-0.1,0-0.2,0-0.3-0.2L151,82v8.1c0,0.2-0.2,0.3-0.3,0.3
				c-0.2,0-0.4-0.2-0.4-0.3V81c0-0.1,0.1-0.2,0.1-0.3c0,0,0,0,0,0c0.2-0.1,0.4-0.1,0.5,0.1l3.5,4.9l3.5-4.9c0.1-0.2,0.3-0.2,0.5-0.1
				c0,0,0.1,0.1,0.1,0.1c0,0.1,0.1,0.1,0.1,0.2v9.1c0,0.2-0.2,0.3-0.3,0.3c-0.2,0-0.3-0.2-0.3-0.3V82z"/>
			<path d="M161.5,80.9c0-0.2,0.2-0.3,0.3-0.3h0h5.1c0.2,0,0.3,0.2,0.3,0.3c0,0.2-0.1,0.4-0.3,0.4h-4.7v3.9h4.1
				c0.2,0,0.3,0.2,0.3,0.4c0,0.2-0.2,0.3-0.3,0.3h-4.1v3.9h4.7c0.2,0,0.3,0.2,0.3,0.4c0,0.2-0.1,0.3-0.3,0.3h-5h0h0
				c-0.2,0-0.3-0.2-0.3-0.3V80.9z"/>
			<path d="M173.9,87.2V87v-0.1v-6c0-0.2,0.2-0.3,0.3-0.3c0.2,0,0.4,0.2,0.4,0.3v4c0.6-0.8,1.6-1.4,2.7-1.4c1.9,0,3.3,1.6,3.3,3.5
				c0,1.9-1.5,3.4-3.3,3.4c-1.1,0-2-0.5-2.7-1.3v1c0,0.2-0.2,0.3-0.4,0.3c-0.2,0-0.3-0.2-0.3-0.3V87.2z M174.6,87
				c0,1.5,1.2,2.8,2.7,2.8c1.5,0,2.7-1.2,2.7-2.8c0-1.5-1.2-2.8-2.7-2.8c-1.4,0-2.6,1.2-2.7,2.7V87z"/>
			<path d="M183.1,83.9c0-0.2,0.2-0.3,0.3-0.3c0.2,0,0.3,0.1,0.3,0.3v3.8c0,1.2,0.9,2.1,2.1,2.1c1.2,0,2.1-1,2.1-2.1v-3.8
				c0-0.2,0.2-0.3,0.3-0.3c0.2,0,0.4,0.1,0.4,0.3v3.8c0,1.6-1.3,2.8-2.8,2.8c-1.6,0-2.8-1.3-2.8-2.8V83.9z"/>
			<path d="M191.4,89c0.1-0.1,0.3-0.2,0.5,0c0.5,0.4,1.2,0.8,2.1,0.8c0.5,0,1-0.2,1.3-0.4c0.3-0.2,0.5-0.5,0.5-0.8
				c0-0.3-0.1-0.6-0.5-0.8c-0.3-0.2-0.8-0.4-1.5-0.5l0,0c-0.6-0.1-1.2-0.3-1.6-0.5c-0.4-0.3-0.7-0.7-0.7-1.2c0-0.5,0.3-1,0.7-1.4
				c0.4-0.3,1-0.5,1.7-0.5c0.9,0,1.5,0.4,2.1,0.7c0.2,0.1,0.2,0.3,0.1,0.5c-0.1,0.2-0.3,0.2-0.5,0.1c-0.5-0.3-1-0.7-1.7-0.7
				c-0.6,0-1,0.2-1.3,0.4c-0.3,0.2-0.4,0.5-0.4,0.8c0,0.3,0.1,0.5,0.4,0.7c0.3,0.2,0.8,0.4,1.4,0.5h0c0.7,0.1,1.2,0.3,1.7,0.6
				c0.5,0.3,0.8,0.8,0.8,1.4c0,0.6-0.3,1-0.8,1.4c-0.5,0.4-1,0.5-1.7,0.5c-1.1,0-2-0.5-2.6-1C191.3,89.4,191.3,89.2,191.4,89z"/>
			<path d="M198.8,81.6c0-0.2,0.2-0.3,0.3-0.3c0.2,0,0.4,0.2,0.4,0.3V82c0,0.2-0.2,0.4-0.4,0.4c-0.2,0-0.3-0.2-0.3-0.4V81.6z
				 M198.8,83.9c0-0.2,0.2-0.3,0.3-0.3c0.2,0,0.4,0.1,0.4,0.3v6.2c0,0.2-0.2,0.3-0.4,0.3c-0.2,0-0.3-0.2-0.3-0.3V83.9z"/>
			<path d="M207.7,86.4c0-1.2-0.9-2.1-2.1-2.1c-1.2,0-2.1,1-2.1,2.1v3.8v0.1c0,0.1,0,0.1-0.1,0.2c-0.1,0.1-0.2,0.1-0.3,0.1h-0.1
				c-0.1,0-0.2-0.1-0.2-0.2c0,0,0,0,0,0s0,0,0,0v-0.1v-3.8v-0.1v-2.4c0-0.2,0.1-0.3,0.3-0.3c0.2,0,0.3,0.2,0.3,0.3v0.7
				c0.5-0.6,1.3-1,2.1-1c1.6,0,2.8,1.3,2.8,2.8v3.8c0,0.2-0.2,0.3-0.3,0.3c-0.2,0-0.3-0.1-0.3-0.3V86.4z"/>
			<path d="M211,87c0-1.9,1.5-3.5,3.4-3.5c1.8,0,3.2,1.4,3.3,3.2v0v0c0,0.2-0.2,0.3-0.3,0.3h-5.7c0.1,1.5,1.3,2.7,2.7,2.7
				c0.9,0,1.8-0.5,2.2-1.3c0.1-0.2,0.3-0.2,0.5-0.1c0.2,0.1,0.2,0.3,0.1,0.5c-0.6,0.9-1.6,1.6-2.8,1.6C212.4,90.5,211,88.9,211,87z
				 M211.7,86.5h5.2c-0.2-1.3-1.3-2.2-2.6-2.2C213,84.2,211.9,85.2,211.7,86.5z"/>
			<path d="M219.6,89c0.1-0.1,0.3-0.2,0.5,0c0.5,0.4,1.2,0.8,2.1,0.8c0.5,0,1-0.2,1.3-0.4c0.3-0.2,0.5-0.5,0.5-0.8
				c0-0.3-0.1-0.6-0.5-0.8c-0.3-0.2-0.8-0.4-1.5-0.5l0,0c-0.6-0.1-1.2-0.3-1.6-0.5c-0.4-0.3-0.7-0.7-0.7-1.2c0-0.5,0.3-1,0.7-1.4
				c0.4-0.3,1-0.5,1.7-0.5c0.9,0,1.5,0.4,2.1,0.7c0.2,0.1,0.2,0.3,0.1,0.5c-0.1,0.2-0.3,0.2-0.5,0.1c-0.5-0.3-1-0.7-1.7-0.7
				c-0.6,0-1,0.2-1.3,0.4c-0.3,0.2-0.4,0.5-0.4,0.8c0,0.3,0.1,0.5,0.4,0.7c0.3,0.2,0.8,0.4,1.4,0.5h0c0.7,0.1,1.2,0.3,1.7,0.6
				c0.5,0.3,0.8,0.8,0.8,1.4c0,0.6-0.3,1-0.8,1.4c-0.5,0.4-1,0.5-1.7,0.5c-1.1,0-2-0.5-2.6-1C219.5,89.4,219.4,89.2,219.6,89z"/>
			<path d="M226.4,89c0.1-0.1,0.3-0.2,0.5,0c0.5,0.4,1.2,0.8,2.1,0.8c0.5,0,1-0.2,1.3-0.4c0.3-0.2,0.5-0.5,0.5-0.8
				c0-0.3-0.1-0.6-0.5-0.8c-0.3-0.2-0.8-0.4-1.5-0.5l0,0c-0.6-0.1-1.2-0.3-1.6-0.5c-0.4-0.3-0.7-0.7-0.7-1.2c0-0.5,0.3-1,0.7-1.4
				c0.4-0.3,1-0.5,1.7-0.5c0.9,0,1.5,0.4,2.1,0.7c0.2,0.1,0.2,0.3,0.1,0.5c-0.1,0.2-0.3,0.2-0.5,0.1c-0.5-0.3-1-0.7-1.7-0.7
				c-0.6,0-1,0.2-1.3,0.4c-0.3,0.2-0.4,0.5-0.4,0.8c0,0.3,0.1,0.5,0.4,0.7c0.3,0.2,0.8,0.4,1.4,0.5h0c0.7,0.1,1.2,0.3,1.7,0.6
				c0.5,0.3,0.8,0.8,0.8,1.4c0,0.6-0.3,1-0.8,1.4c-0.5,0.4-1,0.5-1.7,0.5c-1.1,0-2-0.5-2.6-1C226.3,89.4,226.3,89.2,226.4,89z"/>
			<path d="M247.9,86.4c0-1.2-1-2.1-2.1-2.1c-1.2,0-2.1,1-2.1,2.1v3.8v0c0,0,0,0,0,0v0c0,0.1-0.1,0.1-0.2,0.2c-0.1,0-0.1,0-0.2,0h0
				h0c0,0,0,0,0,0c0,0-0.1,0-0.1,0c0,0,0,0,0,0l0,0c0,0,0,0,0,0c0,0,0,0,0,0c0,0,0,0,0,0c0,0,0,0,0,0v0v0v-3.8
				c0-1.2-0.9-2.1-2.1-2.1c-1.2,0-2.1,1-2.1,2.1v3.8c0,0.1-0.1,0.2-0.2,0.3c0,0-0.1,0-0.1,0c0,0,0,0-0.1,0h0h0
				c-0.1,0-0.2-0.1-0.3-0.3v-0.1v-3.8v-0.1v-2.4c0-0.2,0.2-0.3,0.3-0.3c0.2,0,0.3,0.1,0.3,0.3v0.7c0.5-0.6,1.3-1,2.1-1
				c1.1,0,2,0.6,2.5,1.5c0.5-0.9,1.4-1.5,2.5-1.5c1.6,0,2.8,1.3,2.8,2.8v3.8c0,0.2-0.1,0.3-0.3,0.3c-0.2,0-0.3-0.2-0.3-0.3V86.4z"/>
			<path d="M254.4,83.6c1.8,0,3.3,1.6,3.3,3.5c0,1.9-1.5,3.5-3.3,3.5c-1.8,0-3.3-1.6-3.3-3.5C251.1,85.1,252.6,83.6,254.4,83.6z
				 M254.4,89.8c1.4,0,2.6-1.2,2.6-2.8c0-1.5-1.2-2.8-2.6-2.8c-1.4,0-2.6,1.3-2.6,2.8C251.8,88.6,253,89.8,254.4,89.8z"/>
			<path d="M265.8,89.1c-0.6,0.8-1.6,1.3-2.7,1.3c-1.9,0-3.3-1.6-3.3-3.4c0-1.9,1.5-3.5,3.3-3.5c1.1,0,2,0.5,2.7,1.4v-4
				c0-0.2,0.2-0.3,0.4-0.3c0.2,0,0.3,0.2,0.3,0.3v6V87v3.1c0,0.2-0.2,0.3-0.3,0.3c-0.2,0-0.4-0.2-0.4-0.3V89.1z M265.8,87.1v-0.2
				c-0.1-1.5-1.2-2.7-2.7-2.7c-1.5,0-2.7,1.2-2.7,2.8c0,1.5,1.2,2.8,2.7,2.8C264.6,89.8,265.7,88.6,265.8,87.1z"/>
			<path d="M268.9,87c0-1.9,1.5-3.5,3.4-3.5c1.8,0,3.2,1.4,3.3,3.2v0v0c0,0.2-0.2,0.3-0.3,0.3h-5.7c0.1,1.5,1.3,2.7,2.7,2.7
				c0.9,0,1.8-0.5,2.2-1.3c0.1-0.2,0.3-0.2,0.5-0.1c0.2,0.1,0.2,0.3,0.1,0.5c-0.6,0.9-1.6,1.6-2.8,1.6
				C270.4,90.5,268.9,88.9,268.9,87z M269.6,86.5h5.2c-0.2-1.3-1.3-2.2-2.6-2.2C270.9,84.2,269.8,85.2,269.6,86.5z"/>
			<path d="M278.1,80.9c0-0.2,0.2-0.3,0.3-0.3c0.2,0,0.4,0.2,0.4,0.3v9.2c0,0.2-0.2,0.3-0.4,0.3c-0.2,0-0.3-0.2-0.3-0.3V80.9z"/>
			<path d="M286,80.9c0-0.2,0.2-0.3,0.3-0.3c0.2,0,0.4,0.2,0.4,0.3v9.2c0,0.2-0.2,0.3-0.4,0.3c-0.2,0-0.3-0.2-0.3-0.3V80.9z"/>
			<path d="M294.9,86.4c0-1.2-0.9-2.1-2.1-2.1c-1.2,0-2.1,1-2.1,2.1v3.8v0.1c0,0.1,0,0.1-0.1,0.2c-0.1,0.1-0.2,0.1-0.3,0.1h-0.1
				c-0.1,0-0.2-0.1-0.2-0.2c0,0,0,0,0,0s0,0,0,0v-0.1v-3.8v-0.1v-2.4c0-0.2,0.1-0.3,0.3-0.3c0.2,0,0.3,0.2,0.3,0.3v0.7
				c0.5-0.6,1.3-1,2.1-1c1.6,0,2.8,1.3,2.8,2.8v3.8c0,0.2-0.2,0.3-0.3,0.3c-0.2,0-0.3-0.1-0.3-0.3V86.4z"/>
			<path d="M303.6,86.4c0-1.2-0.9-2.1-2.1-2.1c-1.2,0-2.1,1-2.1,2.1v3.8v0.1c0,0.1,0,0.1-0.1,0.2c-0.1,0.1-0.2,0.1-0.3,0.1h-0.1
				c-0.1,0-0.2-0.1-0.2-0.2c0,0,0,0,0,0s0,0,0,0v-0.1v-3.8v-0.1v-2.4c0-0.2,0.1-0.3,0.3-0.3c0.2,0,0.3,0.2,0.3,0.3v0.7
				c0.5-0.6,1.3-1,2.1-1c1.6,0,2.8,1.3,2.8,2.8v3.8c0,0.2-0.2,0.3-0.3,0.3c-0.2,0-0.3-0.1-0.3-0.3V86.4z"/>
			<path d="M310.3,83.6c1.8,0,3.3,1.6,3.3,3.5c0,1.9-1.5,3.5-3.3,3.5c-1.8,0-3.3-1.6-3.3-3.5C307,85.1,308.4,83.6,310.3,83.6z
				 M310.3,89.8c1.4,0,2.6-1.2,2.6-2.8c0-1.5-1.2-2.8-2.6-2.8c-1.4,0-2.6,1.3-2.6,2.8C307.7,88.6,308.8,89.8,310.3,89.8z"/>
			<path d="M317.9,90.4c0,0-0.1-0.1-0.1-0.2l-2.6-6.2c-0.1-0.2,0-0.4,0.2-0.4c0.2-0.1,0.4,0,0.4,0.2l2.3,5.4l2.3-5.4
				c0.1-0.2,0.3-0.3,0.4-0.2c0.2,0.1,0.2,0.3,0.2,0.4l-2.6,6.1c0,0.1,0,0.1-0.1,0.2c-0.1,0.1-0.2,0.1-0.2,0.1
				C318.1,90.5,318.1,90.5,317.9,90.4C318,90.5,318,90.5,317.9,90.4C318,90.4,317.9,90.4,317.9,90.4z"/>
			<path d="M329.4,83.9v6.2c0,0.2-0.2,0.3-0.3,0.3c-0.2,0-0.3-0.2-0.3-0.3v-1c-0.6,0.8-1.5,1.4-2.6,1.4c-1.8,0-3.3-1.6-3.3-3.5
				c0-1.9,1.5-3.5,3.3-3.5c1.1,0,2,0.5,2.6,1.4v-1c0-0.2,0.2-0.3,0.3-0.3C329.2,83.6,329.4,83.7,329.4,83.9z M328.7,87
				c0-1.6-1.2-2.8-2.6-2.8c-1.4,0-2.6,1.2-2.6,2.8c0,1.6,1.2,2.8,2.6,2.8C327.5,89.8,328.7,88.6,328.7,87z"/>
			<path d="M334.7,83.9c0,0.2-0.2,0.3-0.3,0.3h-0.9v5c0,0.3,0.3,0.5,0.5,0.5c0.2,0,0.4,0.2,0.4,0.4c0,0.2-0.2,0.3-0.4,0.3
				c-0.7,0-1.2-0.5-1.2-1.2v-5h-0.9c-0.3,0-0.3-0.2-0.3-0.3c0-0.2,0-0.3,0.3-0.3h0.9V81c0-0.2,0.2-0.3,0.3-0.3
				c0.2,0,0.4,0.2,0.4,0.3v2.6h0.9C334.5,83.6,334.7,83.7,334.7,83.9z"/>
			<path d="M338,81.6c0-0.2,0.2-0.3,0.3-0.3c0.2,0,0.4,0.2,0.4,0.3V82c0,0.2-0.2,0.4-0.4,0.4c-0.2,0-0.3-0.2-0.3-0.4V81.6z
				 M338,83.9c0-0.2,0.2-0.3,0.3-0.3c0.2,0,0.4,0.1,0.4,0.3v6.2c0,0.2-0.2,0.3-0.4,0.3c-0.2,0-0.3-0.2-0.3-0.3V83.9z"/>
			<path d="M344.9,83.6c1.8,0,3.3,1.6,3.3,3.5c0,1.9-1.5,3.5-3.3,3.5c-1.8,0-3.3-1.6-3.3-3.5C341.6,85.1,343,83.6,344.9,83.6z
				 M344.9,89.8c1.4,0,2.6-1.2,2.6-2.8c0-1.5-1.2-2.8-2.6-2.8c-1.4,0-2.6,1.3-2.6,2.8C342.3,88.6,343.4,89.8,344.9,89.8z"/>
			<path d="M355.7,86.4c0-1.2-0.9-2.1-2.1-2.1c-1.2,0-2.1,1-2.1,2.1v3.8v0.1c0,0.1,0,0.1-0.1,0.2c-0.1,0.1-0.2,0.1-0.3,0.1H351
				c-0.1,0-0.2-0.1-0.2-0.2c0,0,0,0,0,0s0,0,0,0v-0.1v-3.8v-0.1v-2.4c0-0.2,0.1-0.3,0.3-0.3c0.2,0,0.3,0.2,0.3,0.3v0.7
				c0.5-0.6,1.3-1,2.1-1c1.6,0,2.8,1.3,2.8,2.8v3.8c0,0.2-0.2,0.3-0.3,0.3c-0.2,0-0.3-0.1-0.3-0.3V86.4z"/>
		</g>
	</g>
</g>
<g id="Layer_1">
	<g>
		<g>
			<path fill="#3E3D40" d="M0,58.8V9.3c0-2.6,2-4.6,4.6-4.6h0.1c0,0,0,0,0.2,0H32c2.4,0,4.6,2,4.6,4.6S34.5,14,32,14H9.3v15.3h19.5
				c2.5,0,4.6,2.2,4.6,4.6c0,2.6-2.1,4.7-4.6,4.7H9.3v15.4H32c2.4,0,4.6,2.1,4.6,4.7c0,2.5-2.2,4.6-4.6,4.6H4.9
				c-0.2,0-0.2-0.1-0.2-0.1l-0.1,0.1C2,63.4,0,61.3,0,58.8z"/>
			<path fill="#3E3D40" d="M58.9,58.8c0,2.5-2.1,4.6-4.5,4.6c-2.6,0-4.6-2.1-4.6-4.6V10.1c0,0,0,0,0-0.1c-0.1-1.4,0.6-2.9,1.8-3.9
				c2.1-1.4,4.9-1,6.4,1l27.1,37.5V10.1c0-2.4,2-4.5,4.5-4.5c2.5,0,4.6,2.1,4.6,4.5v48.7c0,2.5-2.1,4.6-4.6,4.6
				c-1.3,0-2.6-0.7-3.4-1.7c-0.2-0.2-0.3-0.3-0.4-0.5L58.9,24V58.8z"/>
			<path fill="#3E3D40" d="M133.5,62.6c-0.2-0.2-0.3-0.3-0.6-0.4c0-0.1-0.1-0.1-0.1-0.3c-0.2-0.2-0.3-0.3-0.4-0.5c0,0-0.1,0-0.1-0.1
				c-0.1-0.2-0.3-0.5-0.4-0.7l-20.5-49c-1-2.3,0.1-5,2.5-6c2.3-1,4.9,0.1,6,2.4L136.2,47l16.3-38.8c1-2.3,3.8-3.4,6-2.4
				c2.3,0.9,3.4,3.7,2.5,6l-20.7,49c-0.1,0.2-0.2,0.5-0.3,0.7c0,0.1,0,0.1-0.1,0.1c-0.1,0.2-0.3,0.3-0.4,0.5
				c-0.1,0.2-0.1,0.2-0.2,0.3c-0.2,0.2-0.3,0.3-0.5,0.4c0,0,0,0-0.2,0.1c-0.2,0.1-0.4,0.3-0.7,0.4c-0.1,0-0.1,0-0.2,0.1
				c-0.3,0-0.4,0.1-0.7,0.2c0,0-0.1,0-0.2,0c-0.3,0.1-0.6,0.1-0.8,0.1c-0.3,0-0.6,0-0.8-0.1c0,0-0.1,0-0.2,0
				c-0.2-0.1-0.5-0.2-0.7-0.2c0-0.1-0.1-0.1-0.1-0.1s0,0-0.1,0C134.1,63,133.8,62.7,133.5,62.6C133.6,62.6,133.6,62.6,133.5,62.6z"
				/>
			<path fill="#3E3D40" d="M173.6,9.3c0-2.6,2-4.6,4.6-4.6c2.5,0,4.7,2,4.7,4.6v49.5c0,2.6-2.2,4.6-4.7,4.6c-2.6,0-4.6-2-4.6-4.6
				V9.3z"/>
			<path fill="#3E3D40" d="M196.8,48.8c1.5-1.8,4.3-2.1,6.1-0.6c3.7,3,10.1,6.5,16,6.5c4.2,0,8-1.3,10.5-3.1c2.5-1.8,3.6-3.9,3.6-6
				c0-1.1-0.3-1.8-0.8-2.7c-0.5-0.8-1.3-1.7-2.5-2.5c-2.4-1.6-6.5-3-11.5-3.9h-0.2c-3.9-0.8-7.6-1.8-10.8-3.3
				c-3.2-1.5-6-3.6-7.8-6.5c-1.3-2-1.9-4.4-1.9-6.9c0-5,2.9-9.4,6.7-12.2c3.9-2.9,9.1-4.4,14.5-4.4c8,0,14,3.9,18.3,6.7
				c1.9,1.3,2.5,4,1.2,6c-1.3,2-3.9,2.6-6,1.3c-4.3-2.9-8.4-5.4-13.5-5.4c-3.8,0-7.1,1.2-9.4,2.9c-2.3,1.7-3.2,3.5-3.2,5.3
				c0,1,0.2,1.7,0.6,2.3c0.4,0.7,1.2,1.4,2.3,2.2c2.2,1.5,6,2.9,10.5,3.7h0.2c4.3,0.8,8.2,1.9,11.6,3.5c3.4,1.7,6.5,3.9,8.4,7
				c1.3,2,2,4.5,2,7.1c0,5.4-3,10-7.2,13c-4.1,3-9.6,4.8-15.5,4.8c-9.1-0.1-16.7-4.6-21.5-8.4C195.6,53.4,195.3,50.7,196.8,48.8z"/>
			<path fill="#3E3D40" d="M255.1,9.3c0-2.6,2-4.6,4.6-4.6c2.5,0,4.7,2,4.7,4.6v49.5c0,2.6-2.2,4.6-4.7,4.6c-2.6,0-4.6-2-4.6-4.6
				V9.3z"/>
			<path fill="#3E3D40" d="M374.2,58.8c0,2.5-2.1,4.6-4.5,4.6c-2.6,0-4.6-2.1-4.6-4.6V10.1c0,0,0,0,0-0.1c-0.1-1.4,0.6-2.9,1.8-3.9
				c2.1-1.4,4.9-1,6.4,1l27.1,37.5V10.1c0-2.4,2-4.5,4.5-4.5c2.5,0,4.6,2.1,4.6,4.5v48.7c0,2.5-2.1,4.6-4.6,4.6
				c-1.3,0-2.6-0.7-3.4-1.7c-0.2-0.2-0.3-0.3-0.4-0.5L374.2,24V58.8z"/>
		</g>
		<g>
			<g>
				<g>
					<circle fill="#FFF2DD" cx="350.4" cy="40.4" r="2.8"/>
				</g>
				<g>
					<circle fill="#FEE4B7" cx="350.7" cy="33.1" r="3.1"/>
				</g>
				<g>
					<circle fill="#FDD794" cx="347.8" cy="25.5" r="3.4"/>
				</g>
				<g>
					<circle fill="#FCCA6F" cx="341.5" cy="18.9" r="3.8"/>
				</g>
				<g>
					<circle fill="#FABD49" cx="332.2" cy="15" r="4.2"/>
				</g>
				<g>
					<circle fill="#F5A413" cx="321" cy="15" r="4.7"/>
				</g>
			</g>
			<g>
				<g>
					<circle fill="#F9D9E5" cx="337.5" cy="8.6" r="2.8"/>
				</g>
				<g>
					<circle fill="#F4B3C9" cx="331.3" cy="4.7" r="3.1"/>
				</g>
				<g>
					<circle fill="#EF90AF" cx="323.2" cy="3.4" r="3.4"/>
				</g>
				<g>
					<circle fill="#EA6D95" cx="314.4" cy="5.6" r="3.8"/>
				</g>
				<g>
					<circle fill="#E74C7D" cx="306.3" cy="11.7" r="4.2"/>
				</g>
				<g>
					<circle fill="#E4224B" cx="300.7" cy="21.4" r="4.7"/>
				</g>
			</g>
			<g>
				<g>
					<circle fill="#F9DAE8" cx="303.4" cy="3.9" r="2.8"/>
				</g>
				<g>
					<circle fill="#F4B8D1" cx="297" cy="7.3" r="3.1"/>
				</g>
				<g>
					<circle fill="#F098BC" cx="291.8" cy="13.7" r="3.4"/>
				</g>
				<g>
					<circle fill="#E877A8" cx="289.3" cy="22.4" r="3.8"/>
				</g>
				<g>
					<circle fill="#E25A98" cx="290.5" cy="32.4" r="4.2"/>
				</g>
				<g>
					<circle fill="#E4388A" cx="296.1" cy="42.1" r="4.7"/>
				</g>
			</g>
			<g>
				<g>
					<circle fill="#D7B7D5" cx="282.3" cy="31" r="2.8"/>
				</g>
				<g>
					<circle fill="#BF95C0" cx="282.1" cy="38.4" r="3.1"/>
				</g>
				<g>
					<circle fill="#A573AB" cx="285" cy="46" r="3.4"/>
				</g>
				<g>
					<circle fill="#895298" cx="291.3" cy="52.5" r="3.8"/>
				</g>
				<g>
					<circle fill="#78408E" cx="300.6" cy="56.5" r="4.2"/>
				</g>
				<g>
					<circle fill="#69398B" cx="311.8" cy="56.5" r="4.7"/>
				</g>
			</g>
			<g>
				<g>
					<circle fill="#D7ECF9" cx="295.3" cy="62.9" r="2.8"/>
				</g>
				<g>
					<circle fill="#ADDBF3" cx="301.5" cy="66.8" r="3.1"/>
				</g>
				<g>
					<circle fill="#84C6E9" cx="309.6" cy="68" r="3.4"/>
				</g>
				<g>
					<circle fill="#57B3E1" cx="318.4" cy="65.9" r="3.8"/>
				</g>
				<g>
					<circle fill="#289ED5" cx="326.4" cy="59.8" r="4.2"/>
				</g>
				<g>
					<circle fill="#0178BA" cx="332" cy="50.1" r="4.7"/>
				</g>
			</g>
			<g>
				<g>
					<circle fill="#D2E8D7" cx="329.3" cy="67.6" r="2.8"/>
				</g>
				<g>
					<circle fill="#A3D1AE" cx="335.8" cy="64.1" r="3.1"/>
				</g>
				<g>
					<circle fill="#75BC88" cx="341" cy="57.8" r="3.4"/>
				</g>
				<g>
					<circle fill="#3DAA60" cx="343.5" cy="49.1" r="3.8"/>
				</g>
				<g>
					<circle fill="#009C3A" cx="342.2" cy="39.1" r="4.2"/>
				</g>
				<g>
					<circle fill="#009235" cx="336.6" cy="29.4" r="4.7"/>
				</g>
			</g>
		</g>
	</g>
</g>
<g id="Layer_2" display="none">
	<g display="inline">
		<g>
			<path d="M0.6,58.3V9c0-2.6,2-4.6,4.6-4.6h0.1c0,0,0,0,0.2,0h27.1c2.4,0,4.6,2,4.6,4.6c0,2.6-2.2,4.7-4.6,4.7H9.9V29h19.5
				c2.5,0,4.6,2.2,4.6,4.6c0,2.6-2.1,4.7-4.6,4.7H9.9v15.4h22.6c2.4,0,4.6,2.1,4.6,4.7c0,2.5-2.2,4.6-4.6,4.6H5.4
				c-0.2,0-0.2-0.1-0.2-0.1l-0.1,0.1C2.6,62.9,0.6,60.8,0.6,58.3z"/>
			<path d="M59.3,58.3c0,2.5-2.1,4.6-4.5,4.6c-2.6,0-4.6-2.1-4.6-4.6V9.8c0,0,0,0,0-0.1c-0.1-1.4,0.6-2.9,1.8-3.8
				c2.1-1.4,4.9-1,6.3,1l27,37.3V9.8c0-2.4,2-4.5,4.5-4.5c2.5,0,4.6,2.1,4.6,4.5v48.5c0,2.5-2.1,4.6-4.6,4.6c-1.3,0-2.6-0.7-3.4-1.7
				c-0.2-0.2-0.3-0.3-0.4-0.5L59.3,23.6V58.3z"/>
			<path d="M133.6,62.1c-0.2-0.2-0.3-0.3-0.6-0.4c0-0.1-0.1-0.1-0.1-0.3c-0.2-0.2-0.3-0.3-0.4-0.5c0,0-0.1,0-0.1-0.1
				c-0.1-0.2-0.2-0.5-0.4-0.7l-20.5-48.8c-1-2.3,0.1-5,2.5-5.9c2.3-1,4.9,0.1,5.9,2.4l16.3,38.7l16.3-38.7c1-2.3,3.8-3.4,6-2.4
				c2.3,0.9,3.4,3.7,2.5,5.9l-20.6,48.8c-0.1,0.2-0.2,0.5-0.3,0.7c0,0.1,0,0.1-0.1,0.1c-0.1,0.2-0.3,0.3-0.4,0.5
				c-0.1,0.2-0.1,0.2-0.2,0.3c-0.2,0.2-0.3,0.3-0.5,0.4c0,0,0,0-0.2,0.1c-0.2,0.1-0.4,0.3-0.7,0.4c-0.1,0-0.1,0-0.2,0.1
				c-0.3,0-0.4,0.1-0.7,0.2c0,0-0.1,0-0.2,0c-0.3,0.1-0.6,0.1-0.8,0.1c-0.2,0-0.6,0-0.8-0.1c0,0-0.1,0-0.2,0
				c-0.2-0.1-0.5-0.2-0.7-0.2c0-0.1-0.1-0.1-0.1-0.1s0,0-0.1,0C134.2,62.5,133.9,62.2,133.6,62.1C133.6,62.1,133.6,62.1,133.6,62.1z
				"/>
			<path d="M173.6,9c0-2.6,2-4.6,4.6-4.6c2.5,0,4.7,2,4.7,4.6v49.3c0,2.6-2.2,4.6-4.7,4.6c-2.6,0-4.6-2-4.6-4.6V9z"/>
			<path d="M196.6,48.4c1.5-1.8,4.3-2.1,6.1-0.6c3.7,3,10,6.5,16,6.4c4.2,0,7.9-1.3,10.4-3.1c2.5-1.8,3.6-3.9,3.6-6
				c0-1.1-0.3-1.8-0.8-2.7c-0.5-0.8-1.3-1.7-2.5-2.5c-2.4-1.6-6.5-3-11.4-3.9h-0.2c-3.9-0.8-7.6-1.8-10.8-3.3
				c-3.2-1.5-5.9-3.6-7.8-6.5c-1.3-2-1.9-4.3-1.9-6.8c0-5,2.8-9.4,6.7-12.2c3.9-2.8,9-4.4,14.5-4.4c8,0,14,3.9,18.2,6.7
				c1.9,1.3,2.5,4,1.2,5.9c-1.3,2-3.9,2.6-5.9,1.3c-4.3-2.8-8.4-5.3-13.4-5.3c-3.8,0-7.1,1.2-9.4,2.8c-2.3,1.7-3.2,3.5-3.2,5.3
				c0,1,0.2,1.7,0.6,2.3c0.4,0.7,1.2,1.4,2.3,2.2c2.2,1.5,5.9,2.8,10.4,3.7h0.2c4.3,0.8,8.2,1.9,11.5,3.5c3.4,1.7,6.4,3.8,8.4,6.9
				c1.3,2,2,4.5,2,7.1c0,5.3-3,9.9-7.2,12.9c-4.1,3-9.5,4.8-15.5,4.8c-9-0.1-16.6-4.6-21.4-8.4C195.5,53,195.2,50.2,196.6,48.4z"/>
			<path d="M254.8,9c0-2.6,2-4.6,4.6-4.6c2.5,0,4.7,2,4.7,4.6v49.3c0,2.6-2.2,4.6-4.7,4.6c-2.6,0-4.6-2-4.6-4.6V9z"/>
			<path d="M373.4,58.3c0,2.5-2.1,4.6-4.5,4.6c-2.6,0-4.6-2.1-4.6-4.6V9.8c0,0,0,0,0-0.1c-0.1-1.4,0.6-2.9,1.8-3.8
				c2.1-1.4,4.9-1,6.3,1l27,37.3V9.8c0-2.4,2-4.5,4.5-4.5s4.6,2.1,4.6,4.5v48.5c0,2.5-2.1,4.6-4.6,4.6c-1.3,0-2.6-0.7-3.4-1.7
				c-0.2-0.2-0.3-0.3-0.4-0.5l-26.7-37.1V58.3z"/>
		</g>
		<g>
			<g opacity="0.1">
				<g>
					<circle fill="#58585A" cx="350.4" cy="40.2" r="2.8"/>
				</g>
				<g>
					<circle cx="337.2" cy="7.8" r="2.8"/>
				</g>
				<g>
					<circle fill="#87888A" cx="302.5" cy="3" r="2.8"/>
				</g>
				<g>
					<circle fill="#58585A" cx="281.1" cy="30.6" r="2.8"/>
				</g>
				<g>
					<circle cx="294.2" cy="63" r="2.8"/>
				</g>
				<g>
					<circle fill="#87888A" cx="328.9" cy="67.8" r="2.8"/>
				</g>
			</g>
			<g opacity="0.3">
				<g>
					<circle fill="#58585A" cx="350.6" cy="32.7" r="3.1"/>
				</g>
				<g>
					<circle cx="330.8" cy="3.8" r="3.1"/>
				</g>
				<g>
					<circle fill="#87888A" cx="295.9" cy="6.5" r="3.1"/>
				</g>
				<g>
					<circle fill="#58585A" cx="280.8" cy="38.1" r="3.1"/>
				</g>
				<g>
					<circle cx="300.6" cy="67" r="3.1"/>
				</g>
				<g>
					<circle fill="#87888A" cx="335.5" cy="64.3" r="3.1"/>
				</g>
			</g>
			<g opacity="0.4">
				<g>
					<circle fill="#58585A" cx="347.6" cy="25" r="3.5"/>
				</g>
				<g>
					<circle cx="322.6" cy="2.5" r="3.5"/>
				</g>
				<g>
					<circle fill="#87888A" cx="290.7" cy="13" r="3.5"/>
				</g>
				<g>
					<circle fill="#58585A" cx="283.8" cy="45.9" r="3.5"/>
				</g>
				<g>
					<circle cx="308.8" cy="68.3" r="3.5"/>
				</g>
				<g>
					<circle fill="#87888A" cx="340.7" cy="57.8" r="3.5"/>
				</g>
			</g>
			<g opacity="0.6">
				<g>
					<circle fill="#58585A" cx="341.2" cy="18.3" r="3.9"/>
				</g>
				<g>
					<circle cx="313.7" cy="4.8" r="3.9"/>
				</g>
				<g>
					<circle fill="#87888A" cx="288.2" cy="21.9" r="3.9"/>
				</g>
				<g>
					<circle fill="#58585A" cx="290.2" cy="52.5" r="3.9"/>
				</g>
				<g>
					<circle cx="317.8" cy="66.1" r="3.9"/>
				</g>
				<g>
					<circle fill="#87888A" cx="343.3" cy="49" r="3.9"/>
				</g>
			</g>
			<g opacity="0.8">
				<g>
					<circle fill="#58585A" cx="331.8" cy="14.3" r="4.3"/>
				</g>
				<g>
					<circle cx="305.5" cy="10.9" r="4.3"/>
				</g>
				<g>
					<circle fill="#87888A" cx="289.4" cy="32" r="4.3"/>
				</g>
				<g>
					<circle fill="#58585A" cx="299.6" cy="56.5" r="4.3"/>
				</g>
				<g>
					<circle cx="325.9" cy="59.9" r="4.3"/>
				</g>
				<g>
					<circle fill="#87888A" cx="342" cy="38.8" r="4.3"/>
				</g>
			</g>
			<g>
				<g>
					<circle fill="#58585A" cx="320.4" cy="14.3" r="4.8"/>
				</g>
				<g>
					<circle cx="299.8" cy="20.8" r="4.8"/>
				</g>
				<g>
					<circle fill="#87888A" cx="295.1" cy="41.9" r="4.8"/>
				</g>
				<g>
					<circle fill="#58585A" cx="311" cy="56.5" r="4.8"/>
				</g>
				<g>
					<circle cx="331.6" cy="50" r="4.8"/>
				</g>
				<g>
					<circle fill="#87888A" cx="336.3" cy="28.9" r="4.8"/>
				</g>
			</g>
		</g>
	</g>
</g>
<g id="Layer_5" display="none">
	<rect x="-7.6" y="-6.5" display="inline" width="425.2" height="82.7"/>
</g>
<g id="Layer_3" display="none">
	<g display="inline">
		<g>
			<g opacity="0.2">
				<g>
					<circle fill="#58585A" cx="351.4" cy="39.7" r="2.8"/>
				</g>
				<g>
					<circle fill="#FFFFFF" cx="338.1" cy="7.2" r="2.8"/>
				</g>
				<g>
					<circle fill="#87888A" cx="303.4" cy="2.4" r="2.8"/>
				</g>
				<g>
					<circle fill="#58585A" cx="281.8" cy="30.1" r="2.8"/>
				</g>
				<g>
					<circle fill="#FFFFFF" cx="295.1" cy="62.6" r="2.8"/>
				</g>
				<g>
					<circle fill="#87888A" cx="329.8" cy="67.4" r="2.8"/>
				</g>
			</g>
			<g opacity="0.3">
				<g>
					<circle fill="#58585A" cx="351.6" cy="32.2" r="3.2"/>
				</g>
				<g>
					<circle fill="#FFFFFF" cx="331.8" cy="3.3" r="3.2"/>
				</g>
				<g>
					<circle fill="#87888A" cx="296.7" cy="6" r="3.2"/>
				</g>
				<g>
					<circle fill="#58585A" cx="281.6" cy="37.6" r="3.2"/>
				</g>
				<g>
					<circle fill="#FFFFFF" cx="301.4" cy="66.6" r="3.2"/>
				</g>
				<g>
					<circle fill="#87888A" cx="336.4" cy="63.9" r="3.2"/>
				</g>
			</g>
			<g opacity="0.4">
				<g>
					<circle fill="#58585A" cx="348.6" cy="24.5" r="3.5"/>
				</g>
				<g>
					<circle fill="#FFFFFF" cx="323.5" cy="2" r="3.5"/>
				</g>
				<g>
					<circle fill="#87888A" cx="291.5" cy="12.4" r="3.5"/>
				</g>
				<g>
					<circle fill="#58585A" cx="284.6" cy="45.4" r="3.5"/>
				</g>
				<g>
					<circle fill="#FFFFFF" cx="309.6" cy="67.9" r="3.5"/>
				</g>
				<g>
					<circle fill="#87888A" cx="341.7" cy="57.4" r="3.5"/>
				</g>
			</g>
			<g opacity="0.6">
				<g>
					<circle fill="#58585A" cx="342.2" cy="17.8" r="3.9"/>
				</g>
				<g>
					<circle fill="#FFFFFF" cx="314.5" cy="4.2" r="3.9"/>
				</g>
				<g>
					<circle fill="#87888A" cx="288.9" cy="21.3" r="3.9"/>
				</g>
				<g>
					<circle fill="#58585A" cx="291" cy="52.1" r="3.9"/>
				</g>
				<g>
					<circle fill="#FFFFFF" cx="318.6" cy="65.7" r="3.9"/>
				</g>
				<g>
					<circle fill="#87888A" cx="344.2" cy="48.5" r="3.9"/>
				</g>
			</g>
			<g opacity="0.8">
				<g>
					<circle fill="#58585A" cx="332.7" cy="13.8" r="4.3"/>
				</g>
				<g>
					<circle fill="#FFFFFF" cx="306.3" cy="10.4" r="4.3"/>
				</g>
				<g>
					<circle fill="#87888A" cx="290.2" cy="31.6" r="4.3"/>
				</g>
				<g>
					<circle fill="#58585A" cx="300.5" cy="56.1" r="4.3"/>
				</g>
				<g>
					<circle fill="#FFFFFF" cx="326.9" cy="59.5" r="4.3"/>
				</g>
				<g>
					<circle fill="#87888A" cx="343" cy="38.3" r="4.3"/>
				</g>
			</g>
			<g>
				<g>
					<circle fill="#58585A" cx="321.3" cy="13.8" r="4.8"/>
				</g>
				<g>
					<circle fill="#FFFFFF" cx="300.6" cy="20.3" r="4.8"/>
				</g>
				<g>
					<circle fill="#87888A" cx="295.9" cy="41.5" r="4.8"/>
				</g>
				<g>
					<circle fill="#58585A" cx="311.9" cy="56.1" r="4.8"/>
				</g>
				<g>
					<circle fill="#FFFFFF" cx="332.6" cy="49.6" r="4.8"/>
				</g>
				<g>
					<circle fill="#87888A" cx="337.3" cy="28.4" r="4.8"/>
				</g>
			</g>
		</g>
		<g>
			<path fill="#FFFFFF" d="M0.6,58.4V8.9c0-2.6,2-4.6,4.6-4.6h0.1c0,0,0,0,0.2,0h27.2c2.4,0,4.6,2,4.6,4.6c0,2.6-2.2,4.7-4.6,4.7
				H9.9V29h19.5c2.5,0,4.6,2.2,4.6,4.6c0,2.6-2.1,4.7-4.6,4.7H9.9v15.4h22.7c2.4,0,4.6,2.1,4.6,4.7c0,2.5-2.2,4.6-4.6,4.6H5.4
				c-0.2,0-0.2-0.1-0.2-0.1L5.2,63C2.6,63,0.6,60.9,0.6,58.4z"/>
			<path fill="#FFFFFF" d="M59.5,58.4c0,2.5-2.1,4.6-4.5,4.6c-2.6,0-4.6-2.1-4.6-4.6V9.7c0,0,0,0,0-0.1c-0.1-1.4,0.6-2.9,1.8-3.9
				c2.1-1.4,4.9-1,6.4,1l27.1,37.5V9.7c0-2.4,2-4.5,4.5-4.5c2.5,0,4.6,2.1,4.6,4.5v48.7c0,2.5-2.1,4.6-4.6,4.6
				c-1.3,0-2.6-0.7-3.4-1.7c-0.2-0.2-0.3-0.3-0.4-0.5L59.5,23.6V58.4z"/>
			<path fill="#FFFFFF" d="M134,62.1c-0.2-0.2-0.3-0.3-0.6-0.4c0-0.1-0.1-0.1-0.1-0.3c-0.2-0.2-0.3-0.3-0.4-0.5c0,0-0.1,0-0.1-0.1
				c-0.1-0.2-0.3-0.5-0.4-0.7l-20.5-48.9c-1-2.3,0.1-5,2.5-5.9c2.3-1,4.9,0.1,5.9,2.4l16.3,38.8L153,7.8c1-2.3,3.8-3.4,6-2.4
				c2.3,0.9,3.4,3.7,2.5,5.9l-20.7,48.9c-0.1,0.2-0.2,0.5-0.3,0.7c0,0.1,0,0.1-0.1,0.1c-0.1,0.2-0.3,0.3-0.4,0.5
				c-0.1,0.2-0.1,0.2-0.2,0.3c-0.2,0.2-0.3,0.3-0.5,0.4c0,0,0,0-0.2,0.1c-0.2,0.1-0.4,0.3-0.7,0.4c-0.1,0-0.1,0-0.2,0.1
				c-0.3,0-0.4,0.1-0.7,0.2c0,0-0.1,0-0.2,0c-0.3,0.1-0.6,0.1-0.8,0.1c-0.3,0-0.6,0-0.8-0.1c0,0-0.1,0-0.2,0
				c-0.2-0.1-0.5-0.2-0.7-0.2c0-0.1-0.1-0.1-0.1-0.1s0,0-0.1,0C134.6,62.6,134.3,62.3,134,62.1C134,62.1,134,62.1,134,62.1z"/>
			<path fill="#FFFFFF" d="M174.1,8.9c0-2.6,2-4.6,4.6-4.6c2.5,0,4.7,2,4.7,4.6v49.4c0,2.6-2.2,4.6-4.7,4.6c-2.6,0-4.6-2-4.6-4.6
				V8.9z"/>
			<path fill="#FFFFFF" d="M197.2,48.4c1.5-1.8,4.3-2.1,6.1-0.6c3.7,3,10.1,6.5,16,6.5c4.2,0,8-1.3,10.5-3.1c2.5-1.8,3.6-3.9,3.6-6
				c0-1.1-0.3-1.8-0.8-2.7c-0.5-0.8-1.3-1.7-2.5-2.5c-2.4-1.6-6.5-3-11.5-3.9h-0.2c-3.9-0.8-7.6-1.8-10.8-3.3
				c-3.2-1.5-5.9-3.6-7.8-6.5c-1.3-2-1.9-4.4-1.9-6.9c0-5,2.8-9.4,6.7-12.2c3.9-2.8,9.1-4.4,14.5-4.4c8,0,14,3.9,18.3,6.7
				c1.9,1.3,2.5,4,1.2,5.9c-1.3,2-3.9,2.6-6,1.3c-4.3-2.8-8.4-5.4-13.5-5.4c-3.8,0-7.1,1.2-9.4,2.9c-2.3,1.7-3.2,3.5-3.2,5.3
				c0,1,0.2,1.7,0.6,2.3c0.4,0.7,1.2,1.4,2.3,2.2c2.2,1.5,5.9,2.9,10.5,3.7h0.2c4.3,0.8,8.2,1.9,11.6,3.5c3.4,1.7,6.5,3.9,8.4,7
				c1.3,2,2,4.5,2,7.1c0,5.4-3,10-7.2,13c-4.1,3-9.6,4.8-15.5,4.8c-9.1-0.1-16.7-4.6-21.5-8.4C196.1,53,195.8,50.2,197.2,48.4z"/>
			<path fill="#FFFFFF" d="M255.6,8.9c0-2.6,2-4.6,4.6-4.6c2.5,0,4.7,2,4.7,4.6v49.4c0,2.6-2.2,4.6-4.7,4.6c-2.6,0-4.6-2-4.6-4.6
				V8.9z"/>
			<path fill="#FFFFFF" d="M374.5,58.4c0,2.5-2.1,4.6-4.5,4.6c-2.6,0-4.6-2.1-4.6-4.6V9.7c0,0,0,0,0-0.1c-0.1-1.4,0.6-2.9,1.8-3.9
				c2.1-1.4,4.9-1,6.4,1l27.1,37.5V9.7c0-2.4,2-4.5,4.5-4.5s4.6,2.1,4.6,4.5v48.7c0,2.5-2.1,4.6-4.6,4.6c-1.3,0-2.6-0.7-3.4-1.7
				c-0.2-0.2-0.3-0.3-0.4-0.5l-26.8-37.2V58.4z"/>
		</g>
	</g>
</g>
</svg>
