<?xml version="1.0" encoding="utf-8"?>
<!-- Generator: Adobe Illustrator 19.1.0, SVG Export Plug-In . SVG Version: 6.00 Build 0)  -->
<svg version="1.1" id="Layer_1" xmlns="http://www.w3.org/2000/svg" xmlns:xlink="http://www.w3.org/1999/xlink" x="0px" y="0px"
	 viewBox="-190 272.5 250.4 250" enable-background="new -190 272.5 250.4 250" xml:space="preserve">
<g>
	<path fill="#3E3E40" d="M-189.5,299.9c64.7,0,129.5,0,194.2,0c0.6,13,0.4,26.1,0.2,39c-6.9,6.9-13.5,13.8-20.8,20.1
		c-0.2-12.8,0.6-25.5-0.5-38.2c-50.7,0.2-101.3,0.2-152,0c0,50.7,0.2,101.3-0.1,152.1c1.7,0.2,3.3,0.4,5,0.5
		c49.2,0,98.5-0.1,147.8,0c-0.1-11.3-0.1-22.7,0-34.1c6.9-6.9,13.6-13.7,20.5-20.5c0.9,25.1,0,50.4,0.5,75.5
		c-58.7-0.1-117.3,0-175.9-0.1c-6.2-0.1-12.5,0.2-18.7-0.3C-189.6,429.4-189.7,364.7-189.5,299.9L-189.5,299.9z"/>
	<path fill="#F5A313" d="M33.4,325.7c6.3-7.3,19.3-5.7,24.4,2.3c5.3,7.4,1.8,16.4-5.2,23.2c-21.4,20.8-41.2,43.3-61.8,64.8
		c-5.2,5.9-11.1,11.1-16,17.3c-1.9,1.8-4.2,3-6.4,4.2c-5.4,1-11.6,0.7-15.8-3.4C-64,417-80.7,400.2-97.2,383.2
		c-3.7-3.5-8.3-7.1-8.8-12.5c-1.9-8.1,3.7-16.9,11.9-18.6c5.6-1.7,11.7,0.7,15.7,5c13.8,14.1,27.9,27.8,41.5,42.1
		C-13.4,374.7,10,350.1,33.4,325.7L33.4,325.7z"/>
</g>
<rect x="-190" y="272.5" fill="none" width="250" height="250"/>
</svg>
