<?xml version="1.0" encoding="utf-8"?>
<!-- Generator: Adobe Illustrator 19.1.0, SVG Export Plug-In . SVG Version: 6.00 Build 0)  -->
<svg version="1.1" id="Layer_1" xmlns="http://www.w3.org/2000/svg" xmlns:xlink="http://www.w3.org/1999/xlink" x="0px" y="0px"
	 viewBox="-196 272 250 250.2" enable-background="new -196 272 250 250.2" xml:space="preserve">
<g>
	<path fill="#F5A313" d="M-125,278.5c24.5-6.4,50.1-7.5,75.2-5.6c13.3,1.4,26.5,3.8,39.3,7.5c2.8,0.6,4.6,2.9,5.9,5.2
		c0.3,3.1,0.2,6.4-1.9,8.9c-10.4,13.8-20.5,27.8-29.8,42.5c1.3,0.7,2.6,1.4,4,2.1c18.7,10,36.3,22.6,50.7,38.3
		c11.3,12.4,20.2,27,24.6,43.4c3.9,17.5,2.8,36.9-6.7,52.6c-9.2,16.6-25.4,28-42.3,35.8c-28.1,12.2-59.7,15.1-89.9,11.3
		c-23.4-3.1-46.7-11.1-65.3-25.9c-10.2-8.4-18.5-19.4-23.1-31.9c-5.1-14.5-4.6-30.5-0.5-45.3c5.5-19.1,17.7-35.6,31.9-49.2
		c12.8-11.8,27.2-22,42.8-30c0.5-0.3,1.5-0.8,2-1c-9.4-15.1-18.9-30.1-29.5-44.5c-1.2-3-1.3-6.7,0.9-9.3
		C-133.9,280-129,279.7-125,278.5 M-77.9,388.3c-12.9,5.3-22.5,17.3-25.5,30.9c-2.8,0-5.5,0-8.2,0c-0.5,0.5-1.3,1.5-1.8,1.9
		c0,2.4,0,4.8,0,7.1c0.4,0.5,1.3,1.4,1.8,1.9c2.2,0,4.5,0,6.7,0c0,1.3,0,2.6,0,4c-2.2,0-4.5,0-6.7,0c-0.4,0.5-1.3,1.4-1.8,1.9
		c0,2.4,0,4.8,0,7.2c0.4,0.4,1.3,1.2,1.7,1.7c2.5,0,5,0,7.6,0c1.5,7.9,4.4,15.6,9.8,21.7c14,16.1,39.8,18.2,57.5,7.3
		c-1.8-3.9-1-10.1-5.8-11.6c-10.2,5.4-23.4,6.4-33.3-0.2c-6-3.8-9.1-10.5-10.8-17.2c12.6,0,25.2,0,37.8,0c1.6,0.2,2.9-0.8,4.1-1.7
		c-0.1-2.4-0.1-4.8-0.1-7.2c-0.6-0.6-1.3-1.3-1.9-1.9c-13.7,0-27.4,0-41.1,0c0-1.3,0-2.7,0-4c13.7,0,27.4,0,41.1,0
		c0.6-0.6,1.2-1.2,1.9-1.9c0-2.4,0-4.8,0-7.3c-0.6-0.6-1.3-1.3-1.9-1.9c-13,0-26.1,0-39.1,0c1.8-6.3,5.2-12.4,10.8-16.1
		c9-6.3,21.3-5.4,30.9-0.9c1-0.4,1.9-0.7,2.9-1.1c1.2-3.6,2.4-7.2,3.6-10.8C-50,384-65.1,383.2-77.9,388.3L-77.9,388.3z"/>
	<path fill="#353537" d="M-77.9,388.3c12.8-5.1,27.9-4.3,40.2,2c-1.2,3.6-2.4,7.2-3.6,10.8c-0.9,0.3-1.9,0.7-2.9,1.1
		c-9.6-4.5-21.9-5.4-30.9,0.9c-5.6,3.7-9,9.8-10.8,16.1c13,0.1,26.1,0,39.1,0c0.6,0.6,1.3,1.3,1.9,1.9c0,2.4,0,4.8,0,7.3
		c-0.6,0.6-1.3,1.2-1.9,1.9c-13.7,0-27.4,0-41.1,0c0,1.3,0,2.7,0,4c13.7,0,27.4,0,41.1,0c0.6,0.6,1.3,1.3,1.9,1.9
		c0,2.4,0,4.8,0.1,7.2c-1.2,0.9-2.4,1.9-4.1,1.7c-12.6,0-25.2,0-37.8,0c1.6,6.7,4.8,13.4,10.8,17.2c9.9,6.5,23.1,5.5,33.3,0.2
		c4.9,1.5,4.1,7.7,5.8,11.6c-17.7,10.9-43.5,8.8-57.5-7.3c-5.4-6-8.4-13.8-9.8-21.7c-2.5,0-5,0-7.6,0c-0.4-0.4-1.3-1.2-1.7-1.7
		c0-2.4,0-4.8,0-7.2c0.4-0.5,1.3-1.4,1.8-1.9c2.2,0,4.5,0,6.7,0c0-1.3,0-2.7,0-4c-2.2,0-4.5,0-6.7,0c-0.4-0.5-1.3-1.4-1.8-1.9
		c0-2.4,0-4.8,0-7.1c0.5-0.5,1.3-1.5,1.8-1.9c2.7,0,5.5,0,8.2,0C-100.4,405.7-90.9,393.6-77.9,388.3L-77.9,388.3z"/>
</g>
<rect x="-196" y="272.2" fill="none" width="250" height="250"/>
</svg>
