<?xml version="1.0" encoding="utf-8"?>
<!-- Generator: Adobe Illustrator 19.1.0, SVG Export Plug-In . SVG Version: 6.00 Build 0)  -->
<svg version="1.1" id="Layer_2" xmlns="http://www.w3.org/2000/svg" xmlns:xlink="http://www.w3.org/1999/xlink" x="0px" y="0px"
	 viewBox="180 271.9 250 250" enable-background="new 180 271.9 250 250" xml:space="preserve">
<g>
	<g>
		<path fill="#F5A313" d="M245.5,288c5.1-7.8,13.1-14.3,22.5-15.8c6.9-1.2,13.9,1.6,19,6.2c6.3,5.7,10.7,13.1,14.2,20.7
			c3.2,7.3,6.2,14.6,7.9,22.4c1.8-2.8,2.3-6.2,3.7-9.2c3.8-9.1,8.7-18.4,17.4-23.7c7.4-4.6,16.8-2.6,24.3,1.4
			c10.2,5.5,13.1,16.8,13.1,16.8c0.4,5.3-1.5,10.5-4.1,15c-4.3,6.6-10.2,11.9-16.5,16.6c-1.5,1-2.9,2.3-4.8,2.2
			c-21.7,0-43.5,0-65.2,0c-3.6,0.3-6.3-2.5-9.1-4.3c-10.5-7.2-21.1-16-25.1-28.5C241.4,301.2,241.7,293.8,245.5,288 M258.5,299.2
			c-0.1,0.3-0.7,1.4,0.2,4.2c0.8,2.8,4.5,7.6,7.7,10.5c8.4,7.6,18.3,13.5,28.4,18.5c-3.1-12.7-7.2-25.5-14.3-36.6
			c-2.5-3.7-6.3-8.3-11.4-6.9C264.5,290.9,260.7,294.7,258.5,299.2 M331.7,311.2c-3.5,7-5.9,14.5-8,22.1
			c8.4-5.1,17.1-10.1,23.7-17.5c1.7-1.9,3.4-2.7,3.4-6.7s-6.3-7.1-9.7-7.1C337.6,302,333.9,307.4,331.7,311.2 M295.6,419.1
			c0-23,0-46.2,0-69.2c6.3,0,12.6,0,18.9,0c0.2,23,0.1,46.1,0.1,69.1c28.1,0.2,56.3,0,84.3,0.1c0.1,6.3,0,12.7,0,19
			c-28.1,0-56.3,0-84.3,0c0,27.8,0,55.8,0,83.6c-6.3,0-12.7,0-19-0.1c-0.1-27.8,0.1-55.7-0.1-83.5c-28.1,0-56.2,0.1-84.3,0
			c0-6.3,0-12.6,0-18.9C239.3,419.1,267.5,419.2,295.6,419.1L295.6,419.1z"/>
	</g>
	<polygon fill="#3E3E40" points="286.5,350.4 211,350.4 211,351.4 211,369.1 211,410 230.4,410 230.4,369.1 286.5,369.1 	"/>
	<polygon fill="#3E3E40" points="324,350.4 399.5,350.4 399.5,351.4 399.5,369.1 399.5,410 380.1,410 380.1,369.1 324,369.1 	"/>
	<polygon fill="#3E3E40" points="286.3,521.9 210.8,521.9 210.8,520.8 210.8,503.1 210.8,448 230.2,448 230.2,503.1 286.3,503.1 	
		"/>
	<polygon fill="#3E3E40" points="324,521.9 399.5,521.9 399.5,520.8 399.5,503.1 399.5,448 380.1,448 380.1,503.1 324,503.1 	"/>
</g>
<rect x="180" y="271.9" fill="none" width="250" height="250"/>
</svg>
