<?xml version="1.0" encoding="utf-8"?>
<!-- Generator: Adobe Illustrator 19.1.0, SVG Export Plug-In . SVG Version: 6.00 Build 0)  -->
<svg version="1.1" id="Layer_1" xmlns="http://www.w3.org/2000/svg" xmlns:xlink="http://www.w3.org/1999/xlink" x="0px" y="0px"
	 viewBox="-178 271.4 250.2 250" enable-background="new -178 271.4 250.2 250" xml:space="preserve">
<g id="Layer_2">
	<polygon fill="#1616F2" points="-62,372.6 -62,406.3 -89.2,406.2 -85,393.6 -63.8,372.6 	"/>
	<path fill="#F5A313" d="M54.1,375.8V272.5H21.7v103.3H3.3v-22H1.6l-21.2,21v-21h-1.7l-21.2,21v-20.7h-1.7l-20.4,20.2v-20.5h-1.7
		l-21.2,21l-0.3,1h-0.8v-22h-1.7l-21.2,21l-0.3,1h-3.9v79.8H72.2v-79.8H54.1z M-31.4,386.7h23.7v12.2h-23.7V386.7z M-7.4,420.6
		h-23.7v-10.2h23.7V420.6z"/>
</g>
<g id="Layer_3">
</g>
<g id="Layer_4">
	<g>
		<path fill="#FFFFFF" d="M-121.4,397c0-5.6-6.6-10-15.4-10h-2.6c2.8-2.7,4.5-6.4,4.5-10.5c0-8.1-6.6-14.8-14.8-14.8
			s-14.8,6.6-14.8,14.8c0,4.2,1.7,7.8,4.5,10.5h-2.6c-8.7,0-15.4,4.3-15.4,10c0,0.2,0,0.5,0,0.7c0,0.2,0,0.4,0,0.6v46.8
			c0,3.5,2.9,6.3,6.3,6.3h3.9c0.3,0,0.5,0,0.8-0.1v1.8v55.4c0,3.6,3,6.5,6.5,6.5h6c2,0,3.8-0.9,5-2.3c1.2,1.4,3,2.3,5,2.3h6
			c3.6,0,6.5-3,6.5-6.5v-57.2c0.1,0,0.2,0,0.3,0h3.9c3.5,0,6.3-2.9,6.3-6.3v-46.8c0-0.2,0-0.4,0-0.6
			C-121.4,397.5-121.4,397.2-121.4,397z"/>
		<g>
			<circle fill="#343440" cx="-149.7" cy="376.5" r="11"/>
			<path fill="#343440" d="M-135.8,448.3v-7.6h-27.3v8.8l0,0v59.2c0,1.5,1.2,2.8,2.8,2.8h6c1.5,0,2.8-1.2,2.8-2.8v-59.2h4.4v59.2
				c0,1.5,1.2,2.8,2.8,2.8h6c1.5,0,2.8-1.2,2.8-2.8v-59.9C-135.7,448.5-135.7,448.4-135.8,448.3z"/>
			<path fill="#343440" d="M-125.2,397c0-3.4-5.3-6.1-11.6-6.1h-25.8c-6.3,0-11.6,2.8-11.6,6.1c0,0.2,0,0.5,0.1,0.7
				c0,0.2-0.1,0.4-0.1,0.6v46.8c0,1.4,1.2,2.6,2.6,2.6h3.9c1.4,0,2.6-1.2,2.6-2.6v-37.5h2V439h27.4v-31.3h1.5v37.5
				c0,1.4,1.2,2.6,2.6,2.6h3.9c1.4,0,2.6-1.2,2.6-2.6v-46.8c0-0.2,0-0.4-0.1-0.6C-125.2,397.5-125.2,397.3-125.2,397z"/>
		</g>
	</g>
	<g>
		<path fill="#FFFFFF" d="M-39.1,397c0-5.6-6.6-10-15.4-10h-2.6c2.8-2.7,4.5-6.4,4.5-10.5c0-8.1-6.6-14.8-14.8-14.8
			s-14.8,6.6-14.8,14.8c0,4.2,1.7,7.8,4.5,10.5h-2.6c-8.7,0-15.4,4.3-15.4,10c0,0.2,0,0.5,0,0.7c0,0.2,0,0.4,0,0.6v46.8
			c0,3.5,2.9,6.3,6.3,6.3h3.9c0.3,0,0.5,0,0.8-0.1v1.8v55.4c0,3.6,3,6.5,6.5,6.5h6c2,0,3.8-0.9,5-2.3c1.2,1.4,3,2.3,5,2.3h6
			c3.6,0,6.5-3,6.5-6.5v-57.2c0.1,0,0.2,0,0.3,0h3.9c3.5,0,6.3-2.9,6.3-6.3v-46.8c0-0.2,0-0.4,0-0.6
			C-39.1,397.5-39.1,397.2-39.1,397z"/>
		<g>
			<circle fill="#343440" cx="-67.5" cy="376.5" r="11"/>
			<path fill="#343440" d="M-53.5,448.3v-7.6h-27.4v8.8l0,0v59.2c0,1.5,1.2,2.8,2.8,2.8h6c1.5,0,2.8-1.2,2.8-2.8v-59.2h4.4v59.2
				c0,1.5,1.2,2.8,2.8,2.8h6c1.5,0,2.8-1.2,2.8-2.8v-59.9C-53.5,448.5-53.5,448.4-53.5,448.3z"/>
			<path fill="#343440" d="M-43,397c0-3.4-5.3-6.1-11.6-6.1h-25.8c-6.3,0-11.6,2.8-11.6,6.1c0,0.2,0,0.5,0.1,0.7
				c0,0.2-0.1,0.4-0.1,0.6v46.8c0,1.4,1.2,2.6,2.6,2.6h3.9c1.4,0,2.6-1.2,2.6-2.6v-37.5h2V439h27.4v-31.3h1.5v37.5
				c0,1.4,1.2,2.6,2.6,2.6h3.9c1.4,0,2.6-1.2,2.6-2.6v-46.8c0-0.2,0-0.4-0.1-0.6C-43,397.5-43,397.3-43,397z"/>
		</g>
	</g>
	<g>
		<path fill="#FFFFFF" d="M-77.1,389.3c0-6.3-7.3-11.1-17.1-11.1h-2.9c3.1-3,5-7.1,5-11.7c0-9-7.3-16.4-16.4-16.4
			c-9,0-16.4,7.3-16.4,16.4c0,4.6,1.9,8.7,5,11.7h-2.9c-9.7,0-17.1,4.8-17.1,11.1c0,0.3,0,0.5,0,0.8c0,0.2,0,0.5,0,0.7v52.1
			c0,4,3.2,7.1,7.1,7.1h4.3c0.3,0,0.6,0,0.9-0.1v2.1v61.7c0,4,3.3,7.2,7.2,7.2h6.7c2.2,0,4.2-1,5.4-2.5c1.3,1.6,3.3,2.5,5.4,2.5h6.7
			c4,0,7.2-3.3,7.2-7.2v-63.8c0.1,0,0.2,0,0.4,0h4.3c4,0,7.1-3.2,7.1-7.1v-52.1c0-0.2,0-0.5,0-0.7
			C-77.1,389.8-77.1,389.5-77.1,389.3z"/>
		<g>
			<circle fill="#343440" cx="-108.6" cy="366.4" r="12.2"/>
			<path fill="#343440" d="M-93.1,446.4v-8.5h-30.5v9.8l0,0v65.9c0,1.7,1.4,3.1,3.1,3.1h6.7c1.7,0,3.1-1.4,3.1-3.1v-65.9h4.9v65.9
				c0,1.7,1.4,3.1,3.1,3.1h6.7c1.7,0,3.1-1.4,3.1-3.1v-66.8C-93.1,446.6-93.1,446.5-93.1,446.4z"/>
			<path fill="#343440" d="M-81.4,389.3c0-3.8-5.8-6.8-12.9-6.8h-28.7c-7.1,0-12.9,3.1-12.9,6.8c0,0.3,0,0.5,0.1,0.8
				c-0.1,0.2-0.1,0.4-0.1,0.7v52.1c0,1.6,1.3,2.9,2.9,2.9h4.3c1.6,0,2.9-1.3,2.9-2.9v-41.7h2.2V436h30.5v-34.9h1.7v41.7
				c0,1.6,1.3,2.9,2.9,2.9h4.3c1.6,0,2.9-1.3,2.9-2.9v-52.1c0-0.2,0-0.5-0.1-0.7C-81.4,389.8-81.4,389.5-81.4,389.3z"/>
		</g>
	</g>
</g>
<rect x="-178" y="271.4" fill="none" width="250" height="250"/>
</svg>
