<?xml version="1.0" encoding="utf-8"?>
<!-- Generator: Adobe Illustrator 19.1.0, SVG Export Plug-In . SVG Version: 6.00 Build 0)  -->
<svg version="1.1" id="Layer_2" xmlns="http://www.w3.org/2000/svg" xmlns:xlink="http://www.w3.org/1999/xlink" x="0px" y="0px"
	 viewBox="-188.1 272.6 251 250" enable-background="new -188.1 272.6 251 250" xml:space="preserve">
<circle fill="#F5A313" cx="-159.6" cy="325.3" r="12.7"/>
<path fill="#F5A313" d="M-143.5,408.6v-8.9h-31.8v10.2l0,0v68.6c0,1.8,1.4,3.2,3.2,3.2h7c1.8,0,3.2-1.4,3.2-3.2v-68.6h5.1v68.6
	c0,1.8,1.4,3.2,3.2,3.2h6.9c1.8,0,3.2-1.4,3.2-3.2V409C-143.5,408.9-143.5,408.8-143.5,408.6z"/>
<path fill="#F5A313" d="M-131.3,349c0-3.9-6.1-7.1-13.4-7.1h-29.9c-7.4,0-13.4,3.2-13.4,7.1c0,0.3,0,0.5,0.1,0.8
	c-0.1,0.2-0.1,0.5-0.1,0.7v54.3c0,1.7,1.3,3,3,3h4.4c1.7,0,3-1.3,3-3v-43.4h2.3v36.4h31.8v-36.4h1.8V405c0,1.7,1.3,3,3,3h4.4
	c1.7,0,3-1.3,3-3v-54.4c0-0.2,0-0.5-0.1-0.7C-131.3,349.6-131.3,349.4-131.3,349z"/>
<circle fill="#F5A313" cx="-30.4" cy="325.3" r="12.7"/>
<path fill="#3E3E40" d="M-14.3,408.6v-8.9H-46v10.2l0,0v68.6c0,1.8,1.4,3.2,3.2,3.2h7c1.8,0,3.2-1.4,3.2-3.2v-68.6h5.1v68.6
	c0,1.8,1.4,3.2,3.2,3.2h7c1.8,0,3.2-1.4,3.2-3.2V409C-14.3,408.9-14.3,408.8-14.3,408.6z"/>
<path fill="#F5A313" d="M-2.1,349c0-3.9-6.1-7.1-13.4-7.1h-29.9c-7.4,0-13.4,3.2-13.4,7.1c0,0.3,0,0.5,0.1,0.8
	c-0.1,0.2-0.1,0.4-0.1,0.7v54.3c0,1.7,1.3,3,3,3h4.4c1.7,0,3-1.3,3-3v-43.4h2.3v36.4h31.8v-36.4h1.8V405c0,1.7,1.3,3,3,3h4.4
	c1.7,0,3-1.3,3-3v-54.4c0-0.2,0-0.5-0.1-0.7C-2.1,349.6-2.1,349.4-2.1,349z"/>
<circle fill="#3E3E40" cx="33.6" cy="325.3" r="12.7"/>
<path fill="#3E3E40" d="M49.8,408.6v-8.9H18v10.2l0,0v68.6c0,1.8,1.4,3.2,3.2,3.2h7c1.8,0,3.2-1.4,3.2-3.2v-68.6h5.1v68.6
	c0,1.8,1.4,3.2,3.2,3.2h7c1.8,0,3.2-1.4,3.2-3.2V409C49.8,408.9,49.8,408.8,49.8,408.6z"/>
<path fill="#3E3E40" d="M61.9,349c0-3.9-6.1-7.1-13.4-7.1H18.6c-7.4,0-13.4,3.2-13.4,7.1c0,0.3,0,0.5,0.1,0.8
	c-0.1,0.2-0.1,0.4-0.1,0.7v54.3c0,1.7,1.3,3,3,3h4.4c1.7,0,3-1.3,3-3v-43.4h2.3v36.4h31.8v-36.4h1.8V405c0,1.7,1.3,3,3,3H59
	c1.7,0,3-1.3,3-3v-54.4c0-0.2,0-0.5-0.1-0.7C61.9,349.6,61.9,349.4,61.9,349z"/>
<circle fill="#3E3E40" cx="-95.6" cy="325.3" r="12.7"/>
<path fill="#F5A313" d="M-79.4,408.6v-8.9h-31.8v10.2l0,0v68.6c0,1.8,1.4,3.2,3.2,3.2h7c1.8,0,3.2-1.4,3.2-3.2v-68.6h5.1v68.6
	c0,1.8,1.4,3.2,3.2,3.2h7c1.8,0,3.2-1.4,3.2-3.2V409C-79.4,408.9-79.4,408.8-79.4,408.6z"/>
<path fill="#3E3E40" d="M-67.2,349c0-3.9-6.1-7.1-13.4-7.1h-29.9c-7.4,0-13.4,3.2-13.4,7.1c0,0.3,0,0.5,0.1,0.8
	c-0.1,0.2-0.1,0.5-0.1,0.7v54.3c0,1.7,1.3,3,3,3h4.4c1.7,0,3-1.3,3-3v-43.4h2.3v36.4h31.8v-36.4h1.8V405c0,1.7,1.3,3,3,3h4.4
	c1.7,0,3-1.3,3-3v-54.4c0-0.2,0-0.5-0.1-0.7C-67.2,349.6-67.2,349.4-67.2,349z"/>
<rect x="-187.1" y="272.6" fill="none" width="250" height="250"/>
</svg>
