<?xml version="1.0" encoding="utf-8"?>
<!-- Generator: Adobe Illustrator 19.1.0, SVG Export Plug-In . SVG Version: 6.00 Build 0)  -->
<svg version="1.1" id="Layer_1" xmlns="http://www.w3.org/2000/svg" xmlns:xlink="http://www.w3.org/1999/xlink" x="0px" y="0px"
	 viewBox="-176 272.6 250.1 250" enable-background="new -176 272.6 250.1 250" xml:space="preserve">
<g>
	<path fill="#3E3E40" d="M-74.2,272.7c3.7,2,7.2,4.4,10.6,6.9c16.6,11.7,33.2,23.3,50,34.9c-5,9.1-12.1,17-17.4,26.1
		c1,0.6,1.9,1.3,2.9,1.9c3.1-1.1,6.3-2.5,9.6-2.5c4.3,0.2,7.4,4.5,7.5,8.6c0.4,7.8-5.3,15-12.6,17.5c-3.7,1.4-8.6-0.5-10-4.3
		c-1.2-3.1-0.6-6.6-1.2-9.7c-0.9-0.9-1.9-1.6-2.8-2.4c-6.2,8.4-11.7,17.3-18.2,25.5c-8.8-5.8-17.4-11.8-25.9-18.2
		c2.8-5.6,10.2-0.3,14-4.5c1.5-1.7,3-3.5,3.4-5.7c0.2-4.2-2-8.4-5.2-10.9c-3.8-3-8.5-6.1-13.6-5.5c-3.8,0.3-6.7,3.5-8.2,6.9
		c-1.1,4.7,4.7,9.3,1.2,13.9c-5.7-3.1-10.8-7.3-16.2-10.9c-3.3-2.3-6.7-4.7-9.7-7.3c3.5-5.9,7.8-11.3,11.7-17
		C-94.3,301.4-84.4,287-74.2,272.7 M-107.3,359.1c3.3-4.8,10.5-4.2,15.2-2c5.9,3,11.4,9.7,9.4,16.6c-2.2,5.7-9,5.8-14.1,5.1
		c-0.8,1-1.5,1.9-2.3,2.9c8.2,6.5,17,12,25.4,18.2c-1.7,3-3.5,6.1-5.7,8.9c-4.1,5.6-7.8,11.6-12.3,17c-5.3-2.4-1.6-8.9-3.7-13
		c-1.6-2-3.8-3.3-6.2-4c-4.7-0.8-9.4,2-12.2,5.8c-2.8,3.7-5.2,8.2-4.6,13c0.4,3.9,3.8,6.9,7.4,8.1c3.6-0.1,7.1-1.8,10.5-2.9
		c0.6,0.4,1.9,1.1,2.6,1.5c-3,6.2-7.7,11.5-11.4,17.2c-2,3-4.2,6-6.7,8.9c-14.9-9.8-29.2-20.5-44-30.5c-5.3-3.8-10.8-7.5-16-11.6
		c9.7-14.8,20.2-28.9,30.2-43.5c4-5.6,7.7-11.5,12.1-16.7c8.8,5.4,16.7,12,25.6,17.3c0.7-0.9,1.4-1.7,2.1-2.5
		C-107.2,368.5-110,363.5-107.3,359.1 M-64.2,444.9c6.3-8.4,11.9-17.2,18.1-25.6c8.7,5.8,17.1,11.8,25.7,17.9
		c-0.4,1-0.9,1.9-1.3,2.9c-3.6,0.4-7.3,0.1-10.8,0.9c-2.4,1.6-4.3,4-5,6.8c0,4.1,1.9,8.4,5.1,11c3.9,3.3,8.9,6.4,14.3,5.4
		c4.1-0.1,6.5-4,7.7-7.5c-0.1-3.6-1.7-7.1-2.9-10.4c0.3-0.6,0.9-1.8,1.2-2.3c2.9,1.1,5.5,2.7,7.9,4.5c6.1,4.5,12.6,8.6,18.5,13.3
		c-3.7,6.4-8.4,12.2-12.5,18.3c-9.8,14-19.5,28.1-29.5,41.9c-2.1-1.1-4.1-2.3-6.1-3.6c-18-13-36.4-25.3-54.4-38.4
		c5.1-9.1,12.2-17,17.4-26.1c-1-0.6-2-1.2-3-1.8c-4.1,1.4-9,4-13.2,1.2c-4.9-3.2-4.5-10.2-2.3-15c2.9-6.4,10.4-12.3,17.6-9.2
		c4.6,2,4.2,7.7,4.3,11.8C-67.4,442.9-65.4,443.8-64.2,444.9L-64.2,444.9z"/>
	<path fill="#F5A313" d="M13.9,333.9c20.1,14.1,40.2,27.9,60.2,42.3c-9.7,14.8-20.3,29-30.2,43.6c-4,5.6-7.7,11.4-12.1,16.7
		c-8.7-5.7-17-12-25.7-17.8c-0.7,1-1.3,1.9-2,2.9c1,3.1,2.3,6.3,2.5,9.6c0.2,3.7-3.1,6.9-6.7,7.5c-8.4,1.5-17.1-4.4-19.3-12.6
		c-1.1-3.3,0.2-7.3,3.1-9.1c3-2.1,6.9-1,10.3-1.3c1.2-0.8,2.1-2,3.1-3c-8.5-6.2-17.3-12-25.7-18.2c3.3-5.6,7.4-10.7,11-16.1
		c2.3-3.1,4.1-6.5,6.8-9.2c1.1,0.3,2.1,0.7,3.1,1.2c-0.4,4.7-1.7,11.3,3.5,13.9c4.2,3.6,10.2,1.1,13.9-2.2c3.7-4.3,7.8-9.7,6.4-15.8
		c-0.3-3.9-4.1-6.2-7.5-7.4c-3.6,0-7,1.9-10.4,3c-0.9-0.7-1.7-1.5-2.6-2.2C1.8,350.9,7.7,342.2,13.9,333.9L13.9,333.9z"/>
</g>
<rect x="-176" y="272.6" fill="none" width="250" height="250"/>
</svg>
